<svg width="1168" height="671" viewBox="0 0 1168 671" fill="none" xmlns="http://www.w3.org/2000/svg">
<g clip-path="url(#clip0_4_25)">
<path d="M0 335.5L2.0825 319.101L4.165 302.96L6.2475 287.333L8.33 272.465L10.4125 258.591L12.495 245.93L14.5775 234.682L16.66 225.024L18.7425 217.108L20.825 211.059L22.9075 206.973L24.99 204.913H27.0725L29.155 206.973L31.2375 211.059L33.32 217.108L35.4025 225.024L37.485 234.682L39.5675 245.93L41.65 258.591L43.7325 272.465L45.815 287.333L47.8975 302.96L49.98 319.101L52.0625 335.5L54.145 351.899L56.2275 368.04L58.31 383.667L60.3925 398.535L62.475 412.409L64.5575 425.07L66.64 436.318L68.7225 445.976L70.805 453.892L72.8875 459.941L74.97 464.027L77.0525 466.087H79.135L81.2175 464.027L83.3 459.941L85.3825 453.892L87.465 445.976L89.5475 436.318L91.63 425.07L93.7125 412.409L95.795 398.535L97.8775 383.667L99.96 368.04L102.043 351.899L104.125 335.5L106.208 319.101L108.29 302.96L110.373 287.333L112.455 272.465L114.538 258.591L116.62 245.93L118.703 234.682L120.785 225.024L122.868 217.108L124.95 211.059L127.033 206.973L129.115 204.913H131.198L133.28 206.973L135.363 211.059L137.445 217.108L139.528 225.024L141.61 234.682L143.693 245.93L145.775 258.591L147.858 272.465L149.94 287.333L152.023 302.96L154.105 319.101L156.188 335.5L158.27 351.899L160.353 368.04L162.435 383.667L164.518 398.535L166.6 412.409L168.683 425.07L170.765 436.318L172.848 445.976L174.93 453.892L177.013 459.941L179.095 464.027L181.178 466.087H183.26L185.343 464.027L187.425 459.941L189.508 453.892L191.59 445.976L193.673 436.318L195.755 425.07L197.838 412.409L199.92 398.535L202.003 383.667L204.085 368.04L206.168 351.899L208.25 335.5L210.333 319.101L212.415 302.96L214.498 287.333L216.58 272.465L218.663 258.591L220.745 245.93L222.828 234.682L224.91 225.024L226.993 217.108L229.075 211.059L231.158 206.973L233.24 204.913H235.323L237.405 206.973L239.488 211.059L241.57 217.108L243.653 225.024L245.735 234.682L247.818 245.93L249.9 258.591L251.983 272.465L254.065 287.333L256.148 302.96L258.23 319.101L260.313 335.5L262.395 351.899L264.478 368.04L266.56 383.667L268.643 398.535L270.725 412.409L272.808 425.07L274.89 436.318L276.973 445.976L279.055 453.892L281.138 459.941L283.22 464.027L285.303 466.087H287.385L289.468 464.027L291.55 459.941L293.633 453.892L295.715 445.976L297.798 436.318L299.88 425.07L301.963 412.409L304.045 398.535L306.128 383.667L308.21 368.04L310.293 351.899L312.375 335.5L314.458 319.101L316.54 302.96L318.623 287.333L320.705 272.465L322.788 258.591L324.87 245.93L326.953 234.682L329.035 225.024L331.118 217.108L333.2 211.059L335.283 206.973L337.365 204.913H339.448L341.53 206.973L343.613 211.059L345.695 217.108L347.778 225.024L349.86 234.682L351.943 245.93L354.025 258.591L356.108 272.465L358.19 287.333L360.273 302.96L362.355 319.101L364.438 335.5L366.52 351.899L368.603 368.04L370.685 383.667L372.768 398.535L374.85 412.409L376.933 425.07L379.015 436.318L381.098 445.976L383.18 453.892L385.263 459.941L387.345 464.027L389.428 466.087H391.51L393.593 464.027L395.675 459.941L397.758 453.892L399.84 445.976L401.923 436.318L404.005 425.07L406.088 412.409L408.17 398.535L410.253 383.667L412.335 368.04L414.418 351.899L416.5 335.5L418.583 319.101L420.665 302.96L422.748 287.333L424.83 272.465L426.913 258.591L428.995 245.93L431.078 234.682L433.16 225.024L435.243 217.108L437.325 211.059L439.408 206.973L441.49 204.913H443.573L445.655 206.973L447.738 211.059L449.82 217.108L451.903 225.024L453.985 234.682L456.068 245.93L458.15 258.591L460.233 272.465L462.315 287.333L464.398 302.96L466.48 319.101L468.563 335.5L470.645 351.899L472.728 368.04L474.81 383.667L476.893 398.535L478.975 412.409L481.058 425.07L483.14 436.318L485.223 445.976L487.305 453.892L489.388 459.941L491.47 464.027L493.553 466.087H495.635L497.718 464.027L499.8 459.941L501.883 453.892L503.965 445.976L506.048 436.318L508.13 425.07L510.213 412.409L512.295 398.535L514.378 383.667L516.46 368.04L518.543 351.899L520.625 335.5L522.708 319.101L524.79 302.96L526.873 287.333L528.955 272.465L531.038 258.591L533.12 245.93L535.203 234.682L537.285 225.024L539.368 217.108L541.45 211.059L543.533 206.973L545.615 204.913H547.698L549.78 206.973L551.863 211.059L553.945 217.108L556.028 225.024L558.11 234.682L560.193 245.93L562.275 258.591L564.358 272.465L566.44 287.333L568.523 302.96L570.605 319.101L572.688 335.5L574.77 351.899L576.853 368.04L578.935 383.667L581.018 398.535L583.1 412.409L585.183 425.07L587.265 436.318L589.348 445.976L591.43 453.892L593.513 459.941L595.595 464.027L597.678 466.087H599.76L601.843 464.027L603.925 459.941L606.008 453.892L608.09 445.976L610.173 436.318L612.255 425.07L614.338 412.409L616.42 398.535L618.503 383.667L620.585 368.04L622.668 351.899L624.75 335.5L626.833 319.101L628.915 302.96L630.998 287.333L633.08 272.465L635.163 258.591L637.245 245.93L639.328 234.682L641.41 225.024L643.493 217.108L645.575 211.059L647.658 206.973L649.74 204.913H651.823L653.905 206.973L655.988 211.059L658.07 217.108L660.153 225.024L662.235 234.682L664.318 245.93L666.4 258.591L668.483 272.465L670.565 287.333L672.648 302.96L674.73 319.101L676.813 335.5L678.895 351.899L680.978 368.04L683.06 383.667L685.143 398.535L687.225 412.409L689.308 425.07L691.39 436.318L693.473 445.976L695.555 453.892L697.638 459.941L699.72 464.027L701.803 466.087H703.885L705.968 464.027L708.05 459.941L710.133 453.892L712.215 445.976L714.298 436.318L716.38 425.07L718.463 412.409L720.545 398.535L722.628 383.667L724.71 368.04L726.793 351.899L728.875 335.5L730.958 319.101L733.04 302.96L735.123 287.333L737.205 272.465L739.288 258.591L741.37 245.93L743.453 234.682L745.535 225.024L747.618 217.108L749.7 211.059L751.783 206.973L753.865 204.913H755.948L758.03 206.973L760.113 211.059L762.195 217.108L764.278 225.024L766.36 234.682L768.443 245.93L770.525 258.591L772.608 272.465L774.69 287.333L776.773 302.96L778.855 319.101L780.938 335.5L783.02 351.899L785.103 368.04L787.185 383.667L789.268 398.535L791.35 412.409L793.433 425.07L795.515 436.318L797.598 445.976L799.68 453.892L801.763 459.941L803.845 464.027L805.928 466.087H808.01L810.093 464.027L812.175 459.941L814.258 453.892L816.34 445.976L818.423 436.318L820.505 425.07L822.588 412.409L824.67 398.535L826.753 383.667L828.835 368.04L830.918 351.899" stroke="#FFA500" stroke-width="9" stroke-miterlimit="10" stroke-linecap="round" stroke-linejoin="round"/>
<rect x="274" y="299" width="283" height="73" rx="20" fill="#FFA500" stroke="#FFA500" stroke-width="6"/>
<path d="M308 318.301V353.701C308 354.701 306.7 355.401 305.8 354.601L284.6 337.301C283.8 336.701 283.8 335.401 284.6 334.801L305.8 317.301C306.7 316.601 308 317.201 308 318.301Z" fill="#0F0F0F"/>
<path d="M522 353.647V318.247C522 317.247 523.3 316.547 524.2 317.347L545.4 334.647C546.2 335.247 546.2 336.547 545.4 337.147L524.2 354.647C523.3 355.347 522 354.747 522 353.647Z" fill="#0F0F0F"/>
<path d="M329.886 326.6C331.71 325.896 333.486 325 335.214 323.912C336.942 322.792 338.526 321.4 339.966 319.736H343.134V353H338.67V325.928C338.286 326.28 337.806 326.648 337.23 327.032C336.686 327.416 336.078 327.784 335.406 328.136C334.766 328.488 334.078 328.824 333.342 329.144C332.638 329.464 331.95 329.736 331.278 329.96L329.886 326.6ZM363.364 349.736C366.212 349.736 368.244 349.176 369.46 348.056C370.708 346.936 371.332 345.432 371.332 343.544C371.332 342.328 371.076 341.304 370.564 340.472C370.052 339.64 369.38 338.984 368.548 338.504C367.716 337.992 366.74 337.64 365.62 337.448C364.532 337.224 363.412 337.112 362.26 337.112H361.108V333.464H362.692C363.492 333.464 364.308 333.384 365.14 333.224C366.004 333.064 366.788 332.776 367.492 332.36C368.196 331.944 368.772 331.384 369.22 330.68C369.668 329.944 369.892 329.032 369.892 327.944C369.892 327.048 369.732 326.28 369.412 325.64C369.092 325 368.66 324.472 368.116 324.056C367.604 323.64 366.996 323.352 366.292 323.192C365.62 323 364.9 322.904 364.132 322.904C362.596 322.904 361.284 323.128 360.196 323.576C359.14 324.024 358.244 324.488 357.508 324.968L355.78 321.56C356.164 321.304 356.644 321.032 357.22 320.744C357.828 320.424 358.5 320.136 359.236 319.88C359.972 319.624 360.756 319.416 361.588 319.256C362.452 319.064 363.348 318.968 364.276 318.968C366.036 318.968 367.556 319.192 368.836 319.64C370.116 320.056 371.172 320.664 372.004 321.464C372.836 322.232 373.46 323.16 373.876 324.248C374.292 325.304 374.5 326.456 374.5 327.704C374.5 329.432 374.004 330.92 373.012 332.168C372.02 333.384 370.82 334.312 369.412 334.952C370.276 335.208 371.108 335.576 371.908 336.056C372.708 336.536 373.396 337.144 373.972 337.88C374.58 338.616 375.06 339.464 375.412 340.424C375.796 341.384 375.988 342.456 375.988 343.64C375.988 345.08 375.732 346.424 375.22 347.672C374.74 348.888 373.972 349.944 372.916 350.84C371.892 351.736 370.596 352.44 369.028 352.952C367.46 353.464 365.604 353.72 363.46 353.72C362.628 353.72 361.764 353.656 360.868 353.528C360.004 353.4 359.188 353.24 358.42 353.048C357.652 352.856 356.98 352.664 356.404 352.472C355.828 352.28 355.412 352.12 355.156 351.992L356.02 348.104C356.564 348.36 357.46 348.696 358.708 349.112C359.988 349.528 361.54 349.736 363.364 349.736ZM382.009 336.344C382.009 330.776 382.985 326.488 384.937 323.48C386.921 320.472 389.657 318.968 393.145 318.968C396.633 318.968 399.353 320.472 401.305 323.48C403.289 326.488 404.281 330.776 404.281 336.344C404.281 341.912 403.289 346.2 401.305 349.208C399.353 352.216 396.633 353.72 393.145 353.72C389.657 353.72 386.921 352.216 384.937 349.208C382.985 346.2 382.009 341.912 382.009 336.344ZM399.577 336.344C399.577 334.52 399.465 332.792 399.241 331.16C399.049 329.528 398.697 328.104 398.185 326.888C397.705 325.672 397.049 324.712 396.217 324.008C395.385 323.272 394.361 322.904 393.145 322.904C391.929 322.904 390.905 323.272 390.073 324.008C389.241 324.712 388.569 325.672 388.057 326.888C387.577 328.104 387.225 329.528 387.001 331.16C386.809 332.792 386.713 334.52 386.713 336.344C386.713 338.168 386.809 339.896 387.001 341.528C387.225 343.16 387.577 344.584 388.057 345.8C388.569 347.016 389.241 347.992 390.073 348.728C390.905 349.432 391.929 349.784 393.145 349.784C394.361 349.784 395.385 349.432 396.217 348.728C397.049 347.992 397.705 347.016 398.185 345.8C398.697 344.584 399.049 343.16 399.241 341.528C399.465 339.896 399.577 338.168 399.577 336.344ZM415.007 329.144C415.551 328.792 416.367 328.424 417.455 328.04C418.575 327.656 419.855 327.464 421.295 327.464C423.087 327.464 424.671 327.784 426.047 328.424C427.455 329.064 428.639 329.96 429.599 331.112C430.559 332.264 431.279 333.64 431.759 335.24C432.271 336.84 432.527 338.6 432.527 340.52C432.527 342.536 432.223 344.36 431.615 345.992C431.039 347.592 430.207 348.952 429.119 350.072C428.031 351.192 426.719 352.056 425.183 352.664C423.647 353.272 421.919 353.576 419.999 353.576C417.919 353.576 416.079 353.432 414.479 353.144C412.879 352.856 411.567 352.568 410.543 352.28V316.52L415.007 315.752V329.144ZM415.007 349.112C415.455 349.24 416.079 349.368 416.879 349.496C417.711 349.592 418.735 349.64 419.951 349.64C422.351 349.64 424.271 348.856 425.711 347.288C427.151 345.688 427.871 343.432 427.871 340.52C427.871 339.24 427.743 338.04 427.487 336.92C427.231 335.8 426.815 334.84 426.239 334.04C425.663 333.208 424.911 332.568 423.983 332.12C423.087 331.64 421.999 331.4 420.719 331.4C419.503 331.4 418.383 331.608 417.359 332.024C416.335 332.44 415.551 332.872 415.007 333.32V349.112ZM456.137 340.568C456.137 337.656 455.417 335.416 453.977 333.848C452.537 332.28 450.617 331.496 448.217 331.496C446.873 331.496 445.817 331.544 445.049 331.64C444.313 331.736 443.721 331.848 443.273 331.976V347.72C443.817 348.168 444.601 348.6 445.625 349.016C446.649 349.432 447.769 349.64 448.985 349.64C450.265 349.64 451.353 349.416 452.249 348.968C453.177 348.488 453.929 347.848 454.505 347.048C455.081 346.216 455.497 345.256 455.753 344.168C456.009 343.048 456.137 341.848 456.137 340.568ZM460.793 340.568C460.793 342.456 460.537 344.2 460.025 345.8C459.545 347.4 458.825 348.776 457.865 349.928C456.905 351.08 455.721 351.976 454.313 352.616C452.937 353.256 451.353 353.576 449.561 353.576C448.121 353.576 446.841 353.384 445.721 353C444.633 352.616 443.817 352.248 443.273 351.896V361.88H438.809V328.808C439.865 328.552 441.177 328.28 442.745 327.992C444.345 327.672 446.185 327.512 448.265 327.512C450.185 327.512 451.913 327.816 453.449 328.424C454.985 329.032 456.297 329.896 457.385 331.016C458.473 332.136 459.305 333.512 459.881 335.144C460.489 336.744 460.793 338.552 460.793 340.568ZM467.074 328.76C468.098 328.504 469.442 328.232 471.106 327.944C472.802 327.656 474.754 327.512 476.962 327.512C478.562 327.512 479.906 327.736 480.994 328.184C482.082 328.6 482.994 329.224 483.73 330.056C483.954 329.896 484.306 329.672 484.786 329.384C485.266 329.096 485.858 328.824 486.562 328.568C487.266 328.28 488.05 328.04 488.914 327.848C489.778 327.624 490.706 327.512 491.698 327.512C493.618 327.512 495.186 327.8 496.402 328.376C497.618 328.92 498.562 329.704 499.234 330.728C499.938 331.752 500.402 332.968 500.626 334.376C500.882 335.784 501.01 337.32 501.01 338.984V353H496.546V339.944C496.546 338.472 496.466 337.208 496.306 336.152C496.178 335.096 495.906 334.216 495.49 333.512C495.106 332.808 494.562 332.296 493.858 331.976C493.186 331.624 492.306 331.448 491.218 331.448C489.714 331.448 488.466 331.656 487.474 332.072C486.514 332.456 485.858 332.808 485.506 333.128C485.762 333.96 485.954 334.872 486.082 335.864C486.21 336.856 486.274 337.896 486.274 338.984V353H481.81V339.944C481.81 338.472 481.73 337.208 481.57 336.152C481.41 335.096 481.122 334.216 480.706 333.512C480.322 332.808 479.778 332.296 479.074 331.976C478.402 331.624 477.538 331.448 476.482 331.448C476.034 331.448 475.554 331.464 475.042 331.496C474.53 331.528 474.034 331.576 473.554 331.64C473.106 331.672 472.69 331.72 472.306 331.784C471.922 331.848 471.666 331.896 471.538 331.928V353H467.074V328.76Z" fill="#0F0F0F"/>
</g>
<path d="M861.163 431.008C861.163 433.672 860.275 435.991 858.499 437.964C856.723 439.937 854.306 440.924 851.247 440.924C848.188 440.924 845.771 439.937 843.995 437.964C842.219 435.991 841.331 433.672 841.331 431.008C841.331 428.344 842.219 426.025 843.995 424.052C845.771 422.079 848.188 421.092 851.247 421.092C854.306 421.092 856.723 422.079 858.499 424.052C860.275 426.025 861.163 428.344 861.163 431.008ZM944.205 439C941.442 431.896 938.482 423.805 935.325 414.728C932.266 405.552 929.454 396.031 926.889 386.164C924.324 396.031 921.512 405.552 918.453 414.728C915.394 423.805 912.484 431.896 909.721 439H897.733C893.194 428.837 888.754 417.244 884.413 404.22C880.072 391.196 875.977 377.136 872.129 362.04H886.929C887.916 366.677 889.1 371.709 890.481 377.136C891.862 382.563 893.293 387.989 894.773 393.416C896.352 398.843 897.98 404.072 899.657 409.104C901.334 414.136 902.913 418.527 904.393 422.276C906.07 417.639 907.698 412.755 909.277 407.624C910.954 402.395 912.533 397.165 914.013 391.936C915.493 386.608 916.874 381.428 918.157 376.396C919.538 371.265 920.722 366.48 921.709 362.04H933.105C933.993 366.48 935.078 371.265 936.361 376.396C937.644 381.428 939.025 386.608 940.505 391.936C941.985 397.165 943.514 402.395 945.093 407.624C946.77 412.755 948.448 417.639 950.125 422.276C951.605 418.527 953.134 414.136 954.713 409.104C956.39 404.072 958.018 398.843 959.597 393.416C961.176 387.989 962.656 382.563 964.037 377.136C965.418 371.709 966.602 366.677 967.589 362.04H981.797C977.949 377.136 973.854 391.196 969.513 404.22C965.172 417.244 960.732 428.837 956.193 439H944.205ZM1022.4 429.084C1025.66 429.084 1028.52 429.035 1030.98 428.936C1033.55 428.739 1035.67 428.443 1037.35 428.048V405.108C1036.36 404.615 1034.73 404.22 1032.46 403.924C1030.29 403.529 1027.63 403.332 1024.47 403.332C1022.4 403.332 1020.18 403.48 1017.81 403.776C1015.54 404.072 1013.42 404.713 1011.45 405.7C1009.57 406.588 1007.99 407.871 1006.71 409.548C1005.43 411.127 1004.79 413.248 1004.79 415.912C1004.79 420.845 1006.37 424.299 1009.52 426.272C1012.68 428.147 1016.97 429.084 1022.4 429.084ZM1021.22 360.116C1026.74 360.116 1031.38 360.856 1035.13 362.336C1038.98 363.717 1042.03 365.74 1044.3 368.404C1046.67 370.969 1048.35 374.077 1049.34 377.728C1050.32 381.28 1050.82 385.227 1050.82 389.568V437.668C1049.63 437.865 1047.95 438.161 1045.78 438.556C1043.71 438.852 1041.34 439.148 1038.68 439.444C1036.02 439.74 1033.11 439.987 1029.95 440.184C1026.89 440.48 1023.83 440.628 1020.77 440.628C1016.43 440.628 1012.43 440.184 1008.78 439.296C1005.13 438.408 1001.98 437.027 999.312 435.152C996.648 433.179 994.576 430.613 993.096 427.456C991.616 424.299 990.876 420.5 990.876 416.06C990.876 411.817 991.714 408.167 993.392 405.108C995.168 402.049 997.536 399.583 1000.5 397.708C1003.46 395.833 1006.91 394.452 1010.86 393.564C1014.8 392.676 1018.95 392.232 1023.29 392.232C1024.67 392.232 1026.1 392.331 1027.58 392.528C1029.06 392.627 1030.44 392.824 1031.72 393.12C1033.11 393.317 1034.29 393.515 1035.28 393.712C1036.26 393.909 1036.95 394.057 1037.35 394.156V390.308C1037.35 388.039 1037.1 385.819 1036.61 383.648C1036.11 381.379 1035.23 379.405 1033.94 377.728C1032.66 375.952 1030.89 374.571 1028.62 373.584C1026.45 372.499 1023.58 371.956 1020.03 371.956C1015.49 371.956 1011.5 372.301 1008.04 372.992C1004.69 373.584 1002.17 374.225 1000.5 374.916L998.868 363.52C1000.64 362.731 1003.6 361.991 1007.75 361.3C1011.89 360.511 1016.38 360.116 1021.22 360.116ZM1131.6 362.04C1127.75 376.445 1123.21 390.259 1117.98 403.48C1112.85 416.701 1107.87 428.541 1103.03 439H1090.6C1085.77 428.541 1080.73 416.701 1075.5 403.48C1070.37 390.259 1065.88 376.445 1062.04 362.04H1076.84C1078.02 366.875 1079.4 372.055 1080.98 377.58C1082.66 383.007 1084.38 388.433 1086.16 393.86C1088.03 399.188 1089.91 404.368 1091.78 409.4C1093.66 414.432 1095.43 418.921 1097.11 422.868C1098.79 418.921 1100.57 414.432 1102.44 409.4C1104.31 404.368 1106.14 399.188 1107.92 393.86C1109.79 388.433 1111.52 383.007 1113.1 377.58C1114.77 372.055 1116.2 366.875 1117.39 362.04H1131.6Z" fill="#FFA500"/>
<path d="M861.325 298.008C861.325 300.672 860.437 302.991 858.661 304.964C856.885 306.937 854.468 307.924 851.409 307.924C848.35 307.924 845.933 306.937 844.157 304.964C842.381 302.991 841.493 300.672 841.493 298.008C841.493 295.344 842.381 293.025 844.157 291.052C845.933 289.079 848.35 288.092 851.409 288.092C854.468 288.092 856.885 289.079 858.661 291.052C860.437 293.025 861.325 295.344 861.325 298.008ZM881.467 231.26C884.624 230.471 888.768 229.632 893.899 228.744C899.128 227.856 905.147 227.412 911.955 227.412C916.888 227.412 921.032 228.103 924.387 229.484C927.742 230.767 930.554 232.691 932.823 235.256C933.514 234.763 934.599 234.072 936.079 233.184C937.559 232.296 939.384 231.457 941.555 230.668C943.726 229.78 946.143 229.04 948.807 228.448C951.471 227.757 954.332 227.412 957.391 227.412C963.311 227.412 968.146 228.3 971.895 230.076C975.644 231.753 978.555 234.171 980.627 237.328C982.798 240.485 984.228 244.235 984.919 248.576C985.708 252.917 986.103 257.653 986.103 262.784V306H972.339V265.744C972.339 261.205 972.092 257.308 971.599 254.052C971.204 250.796 970.366 248.083 969.083 245.912C967.899 243.741 966.222 242.163 964.051 241.176C961.979 240.091 959.266 239.548 955.911 239.548C951.274 239.548 947.426 240.189 944.367 241.472C941.407 242.656 939.384 243.741 938.299 244.728C939.088 247.293 939.68 250.105 940.075 253.164C940.47 256.223 940.667 259.429 940.667 262.784V306H926.903V265.744C926.903 261.205 926.656 257.308 926.163 254.052C925.67 250.796 924.782 248.083 923.499 245.912C922.315 243.741 920.638 242.163 918.467 241.176C916.395 240.091 913.731 239.548 910.475 239.548C909.094 239.548 907.614 239.597 906.035 239.696C904.456 239.795 902.927 239.943 901.447 240.14C900.066 240.239 898.783 240.387 897.599 240.584C896.415 240.781 895.626 240.929 895.231 241.028V306H881.467V231.26ZM1062.37 267.668C1062.37 258.689 1060.15 251.783 1055.71 246.948C1051.27 242.113 1045.35 239.696 1037.95 239.696C1033.81 239.696 1030.55 239.844 1028.18 240.14C1025.91 240.436 1024.09 240.781 1022.71 241.176V289.72C1024.38 291.101 1026.8 292.433 1029.96 293.716C1033.12 294.999 1036.57 295.64 1040.32 295.64C1044.27 295.64 1047.62 294.949 1050.38 293.568C1053.24 292.088 1055.56 290.115 1057.34 287.648C1059.12 285.083 1060.4 282.123 1061.19 278.768C1061.98 275.315 1062.37 271.615 1062.37 267.668ZM1076.73 267.668C1076.73 273.489 1075.94 278.867 1074.36 283.8C1072.88 288.733 1070.66 292.976 1067.7 296.528C1064.74 300.08 1061.09 302.843 1056.75 304.816C1052.5 306.789 1047.62 307.776 1042.1 307.776C1037.66 307.776 1033.71 307.184 1030.26 306C1026.9 304.816 1024.38 303.681 1022.71 302.596V333.38H1008.94V231.408C1012.2 230.619 1016.24 229.78 1021.08 228.892C1026.01 227.905 1031.69 227.412 1038.1 227.412C1044.02 227.412 1049.35 228.349 1054.08 230.224C1058.82 232.099 1062.86 234.763 1066.22 238.216C1069.57 241.669 1072.14 245.912 1073.92 250.944C1075.79 255.877 1076.73 261.452 1076.73 267.668ZM1117.7 295.936C1126.49 295.936 1132.75 294.209 1136.5 290.756C1140.35 287.303 1142.27 282.665 1142.27 276.844C1142.27 273.095 1141.48 269.937 1139.9 267.372C1138.33 264.807 1136.25 262.784 1133.69 261.304C1131.12 259.725 1128.11 258.64 1124.66 258.048C1121.31 257.357 1117.85 257.012 1114.3 257.012H1110.75V245.764H1115.63C1118.1 245.764 1120.61 245.517 1123.18 245.024C1125.84 244.531 1128.26 243.643 1130.43 242.36C1132.6 241.077 1134.38 239.351 1135.76 237.18C1137.14 234.911 1137.83 232.099 1137.83 228.744C1137.83 225.981 1137.34 223.613 1136.35 221.64C1135.37 219.667 1134.03 218.039 1132.36 216.756C1130.78 215.473 1128.9 214.585 1126.73 214.092C1124.66 213.5 1122.44 213.204 1120.07 213.204C1115.34 213.204 1111.29 213.895 1107.94 215.276C1104.68 216.657 1101.92 218.088 1099.65 219.568L1094.32 209.06C1095.5 208.271 1096.98 207.432 1098.76 206.544C1100.63 205.557 1102.71 204.669 1104.98 203.88C1107.25 203.091 1109.66 202.449 1112.23 201.956C1114.89 201.364 1117.65 201.068 1120.52 201.068C1125.94 201.068 1130.63 201.759 1134.58 203.14C1138.52 204.423 1141.78 206.297 1144.34 208.764C1146.91 211.132 1148.83 213.993 1150.12 217.348C1151.4 220.604 1152.04 224.156 1152.04 228.004C1152.04 233.332 1150.51 237.92 1147.45 241.768C1144.39 245.517 1140.69 248.379 1136.35 250.352C1139.02 251.141 1141.58 252.276 1144.05 253.756C1146.51 255.236 1148.64 257.111 1150.41 259.38C1152.29 261.649 1153.77 264.264 1154.85 267.224C1156.04 270.184 1156.63 273.489 1156.63 277.14C1156.63 281.58 1155.84 285.724 1154.26 289.572C1152.78 293.321 1150.41 296.577 1147.16 299.34C1144 302.103 1140 304.273 1135.17 305.852C1130.33 307.431 1124.61 308.22 1118 308.22C1115.43 308.22 1112.77 308.023 1110.01 307.628C1107.34 307.233 1104.83 306.74 1102.46 306.148C1100.09 305.556 1098.02 304.964 1096.24 304.372C1094.47 303.78 1093.19 303.287 1092.4 302.892L1095.06 290.904C1096.74 291.693 1099.5 292.729 1103.35 294.012C1107.29 295.295 1112.08 295.936 1117.7 295.936Z" fill="#FFA500"/>
<defs>
<clipPath id="clip0_4_25">
<rect width="833" height="671" fill="white"/>
</clipPath>
</defs>
</svg>
