<svg width="1013" height="807" viewBox="0 0 1013 807" fill="none" xmlns="http://www.w3.org/2000/svg">
<rect x="3.63665" y="367.372" width="466" height="128" rx="32" transform="rotate(-14 3.63665 367.372)" stroke="#FFA500" stroke-width="6"/>
<rect x="543.755" y="47.9227" width="466" height="128" rx="32" transform="rotate(1.5 543.755 47.9227)" stroke="#FFA500" stroke-width="6"/>
<rect y="2.99983" width="235.977" height="127.987" rx="32" transform="matrix(0.866041 0.499972 -0.866041 0.499972 638.878 481.486)" fill="#FFA500" stroke="#FFA500" stroke-width="6"/>
<rect x="657.942" y="254.343" width="236" height="128" rx="32" transform="rotate(7 657.942 254.343)" fill="white" stroke="white" stroke-width="6"/>
<path d="M111.547 416.577C112.063 418.647 112.315 420.629 112.304 422.522C112.334 424.406 111.96 426.17 111.183 427.815C110.437 429.408 109.23 430.83 107.563 432.081C105.928 433.281 103.723 434.226 100.949 434.918C99.5416 435.269 98.2065 435.469 96.944 435.52C95.7332 435.602 94.6104 435.597 93.5757 435.503C92.5306 435.368 91.6097 435.201 90.813 435.004C90.006 434.766 89.3491 434.512 88.8422 434.242L90.0098 428.873C91.034 429.277 92.3169 429.66 93.8586 430.024C95.4313 430.335 97.2526 430.233 99.3226 429.717C102.303 428.973 104.291 427.686 105.286 425.855C106.27 423.983 106.303 421.204 105.384 417.52L98.2463 388.892L104.27 387.39L111.547 416.577ZM119.187 412.298C118.474 409.441 118.269 406.854 118.571 404.536C118.862 402.177 119.515 400.123 120.53 398.375C121.546 396.627 122.856 395.179 124.46 394.031C126.065 392.884 127.799 392.078 129.662 391.613C134.009 390.529 137.682 391.065 140.682 393.219C143.671 395.332 145.857 399.162 147.24 404.709C147.302 404.958 147.385 405.289 147.488 405.703C147.581 406.076 147.648 406.433 147.689 406.774L125.582 412.286C126.666 415.578 128.274 417.881 130.405 419.197C132.536 420.512 135.402 420.721 139.004 419.823C141.032 419.317 142.688 418.728 143.972 418.057C145.287 417.333 146.255 416.718 146.876 416.211L148.891 420.854C148.28 421.402 147.136 422.105 145.459 422.963C143.824 423.81 141.888 424.513 139.652 425.07C136.837 425.772 134.291 425.967 132.015 425.655C129.77 425.291 127.799 424.529 126.103 423.369C124.406 422.209 122.974 420.698 121.806 418.834C120.669 416.919 119.796 414.74 119.187 412.298ZM140.566 403.603C139.957 400.985 138.763 399.018 136.984 397.702C135.236 396.335 133.183 395.946 130.823 396.534C129.498 396.865 128.385 397.428 127.484 398.224C126.615 398.969 125.931 399.843 125.434 400.846C124.936 401.85 124.615 402.941 124.469 404.121C124.365 405.29 124.39 406.449 124.545 407.598L140.566 403.603ZM163.387 383.336C163.884 383.212 164.453 383.114 165.095 383.042C165.768 382.919 166.43 382.842 167.082 382.811C167.723 382.739 168.308 382.703 168.836 382.703C169.395 382.652 169.809 382.637 170.078 382.658L170.338 387.935C169.842 387.883 169.029 387.888 167.901 387.949C166.804 387.959 165.428 388.17 163.772 388.583C162.696 388.851 161.65 389.244 160.636 389.761C159.652 390.226 159.005 390.541 158.695 390.706L165.461 417.844L159.686 419.284L151.975 388.358C153.217 387.521 154.801 386.642 156.727 385.723C158.642 384.761 160.862 383.966 163.387 383.336ZM190.116 407.277C192.476 406.689 194.138 405.945 195.101 405.045C196.105 404.135 196.437 402.997 196.096 401.631C195.745 400.223 194.908 399.245 193.583 398.695C192.259 398.146 190.185 397.674 187.36 397.279C185.994 397.092 184.67 396.894 183.386 396.687C182.134 396.427 181.007 396.049 180.003 395.551C179 395.054 178.126 394.37 177.381 393.501C176.637 392.631 176.084 391.472 175.723 390.023C175.01 387.166 175.504 384.647 177.202 382.464C178.89 380.24 181.556 378.674 185.199 377.766C186.11 377.539 187.036 377.374 187.978 377.271C188.909 377.127 189.789 377.039 190.617 377.009C191.434 376.937 192.154 376.912 192.774 376.933C193.437 376.943 193.949 376.97 194.311 377.011L194.494 382.242C193.79 382.066 192.735 381.977 191.328 381.976C189.91 381.934 188.27 382.145 186.407 382.61C184.792 383.012 183.467 383.694 182.432 384.656C181.386 385.577 181.033 386.72 181.374 388.086C181.549 388.79 181.829 389.38 182.211 389.856C182.635 390.322 183.173 390.716 183.825 391.037C184.507 391.306 185.309 391.524 186.23 391.69C187.151 391.856 188.243 392.002 189.505 392.127C191.181 392.325 192.692 392.564 194.037 392.844C195.372 393.083 196.546 393.471 197.56 394.01C198.615 394.539 199.505 395.284 200.228 396.247C200.942 397.169 201.49 398.395 201.871 399.927C202.615 402.908 202.059 405.443 200.206 407.532C198.394 409.611 195.438 411.161 191.34 412.183C188.483 412.895 186.186 413.204 184.447 413.11C182.719 413.057 181.534 412.979 180.893 412.875L180.71 407.644C181.434 407.727 182.583 407.836 184.155 407.972C185.728 408.107 187.715 407.876 190.116 407.277ZM205.543 390.767C204.831 387.91 204.625 385.323 204.927 383.005C205.218 380.646 205.871 378.592 206.887 376.844C207.902 375.096 209.212 373.648 210.817 372.5C212.421 371.353 214.155 370.547 216.018 370.082C220.365 368.998 224.038 369.533 227.038 371.688C230.027 373.801 232.213 377.631 233.597 383.178C233.658 383.427 233.741 383.758 233.844 384.172C233.937 384.545 234.004 384.902 234.045 385.243L211.938 390.755C213.023 394.047 214.63 396.35 216.761 397.666C218.892 398.981 221.758 399.19 225.36 398.292C227.389 397.786 229.045 397.197 230.328 396.526C231.643 395.802 232.611 395.187 233.232 394.68L235.247 399.323C234.636 399.871 233.492 400.574 231.815 401.432C230.18 402.279 228.244 402.981 226.009 403.539C223.194 404.241 220.648 404.436 218.371 404.124C216.126 403.76 214.155 402.998 212.459 401.838C210.763 400.678 209.33 399.167 208.162 397.303C207.025 395.388 206.152 393.209 205.543 390.767ZM226.923 382.072C226.314 379.454 225.12 377.487 223.341 376.171C221.593 374.804 219.539 374.415 217.179 375.003C215.854 375.334 214.742 375.897 213.841 376.693C212.971 377.438 212.287 378.312 211.79 379.315C211.293 380.319 210.971 381.41 210.826 382.59C210.721 383.759 210.747 384.918 210.901 386.067L226.923 382.072ZM243.756 404.721C244.263 404.814 244.889 404.856 245.634 404.846C246.431 404.867 247.181 404.79 247.885 404.615C250.162 404.047 251.813 403.085 252.838 401.731C253.874 400.417 254.625 398.493 255.093 395.958C251.246 391.64 247.492 386.991 243.832 382.012C240.203 376.98 236.931 371.793 234.016 366.452L240.226 364.904C241.146 366.653 242.185 368.527 243.343 370.525C244.542 372.512 245.819 374.547 247.173 376.627C248.527 378.708 249.944 380.774 251.422 382.823C252.901 384.873 254.4 386.83 255.92 388.694C256.409 383.955 256.702 379.308 256.798 374.755C256.894 370.202 256.897 365.54 256.807 360.77L262.768 359.283C262.795 365.741 262.6 372.012 262.182 378.096C261.754 384.139 261.093 389.866 260.2 395.278C259.836 397.347 259.364 399.158 258.784 400.71C258.255 402.293 257.561 403.653 256.701 404.791C255.842 405.929 254.78 406.875 253.517 407.629C252.296 408.374 250.836 408.957 249.139 409.381C248.684 409.494 248.197 409.572 247.68 409.613C247.173 409.695 246.655 409.736 246.128 409.736C245.651 409.767 245.191 409.771 244.746 409.75C244.342 409.719 244.048 409.683 243.861 409.641L243.756 404.721ZM310.392 382.698C307.37 383.451 304.493 383.641 301.762 383.266C299.03 382.892 296.537 381.975 294.282 380.514C292.027 379.054 290.057 377.06 288.371 374.534C286.717 371.957 285.441 368.867 284.543 365.265C283.645 361.663 283.389 358.342 283.773 355.299C284.189 352.206 285.091 349.474 286.479 347.105C287.868 344.736 289.68 342.746 291.916 341.133C294.152 339.52 296.678 338.362 299.493 337.661C301.273 337.217 302.898 336.943 304.368 336.841C305.879 336.728 307.193 336.708 308.31 336.781C309.469 336.844 310.421 336.959 311.166 337.125C311.911 337.291 312.429 337.426 312.718 337.529L312.218 342.931C311.784 342.775 311.178 342.64 310.402 342.526C309.626 342.412 308.747 342.323 307.764 342.26C306.822 342.187 305.792 342.202 304.675 342.305C303.588 342.356 302.507 342.516 301.43 342.784C299.153 343.352 297.202 344.256 295.577 345.497C293.951 346.738 292.682 348.263 291.771 350.073C290.859 351.884 290.32 353.953 290.152 356.281C290.017 358.558 290.279 361.021 290.939 363.67C291.579 366.237 292.452 368.504 293.558 370.471C294.706 372.427 296.071 374.022 297.653 375.254C299.225 376.445 301.005 377.233 302.991 377.617C305.019 377.991 307.234 377.878 309.635 377.28C312.409 376.588 314.634 375.726 316.311 374.692C317.988 373.658 319.226 372.8 320.023 372.117L322.814 376.698C322.576 376.978 322.125 377.376 321.463 377.893C320.79 378.368 319.931 378.89 318.885 379.459C317.84 380.027 316.597 380.601 315.159 381.179C313.72 381.758 312.131 382.264 310.392 382.698ZM339.633 375.077C336.052 375.882 333.336 375.746 331.484 374.669C329.632 373.591 328.325 371.521 327.561 368.457L317.899 329.707L323.427 327.274L333.104 366.086C333.341 367.038 333.62 367.804 333.94 368.384C334.261 368.963 334.654 369.393 335.119 369.673C335.585 369.952 336.154 370.118 336.826 370.17C337.489 370.181 338.291 370.135 339.233 370.032L339.633 375.077ZM372.248 365.297C371.005 365.958 369.334 366.749 367.232 367.668C365.172 368.578 362.714 369.388 359.858 370.101C357.374 370.72 355.195 370.889 353.322 370.609C351.439 370.287 349.815 369.592 348.45 368.526C347.085 367.459 345.952 366.092 345.053 364.426C344.143 362.718 343.415 360.766 342.868 358.572L338.347 340.439L344.122 339L348.334 355.89C349.314 359.823 350.637 362.484 352.302 363.871C353.967 365.259 356.27 365.587 359.209 364.854C359.83 364.699 360.467 364.518 361.119 364.312C361.771 364.105 362.381 363.909 362.951 363.723C363.51 363.496 364.012 363.304 364.457 363.15C364.933 362.943 365.264 362.772 365.45 362.638L358.653 335.377L364.429 333.937L372.248 365.297ZM380.509 331.444C381.1 330.813 382.037 330.074 383.32 329.226C384.645 328.368 386.239 327.707 388.102 327.243C390.421 326.665 392.573 326.568 394.56 326.952C396.588 327.326 398.409 328.103 400.022 329.283C401.636 330.464 403.011 332.012 404.148 333.927C405.327 335.832 406.226 338.026 406.845 340.51C407.495 343.119 407.69 345.576 407.43 347.884C407.201 350.14 406.563 352.167 405.517 353.967C404.471 355.767 403.052 357.308 401.261 358.59C399.47 359.872 397.332 360.823 394.848 361.442C392.158 362.113 389.731 362.521 387.568 362.664C385.405 362.808 383.615 362.858 382.197 362.816L370.662 316.552L376.19 314.119L380.509 331.444ZM386.95 357.277C387.571 357.299 388.42 357.263 389.496 357.17C390.603 357.026 391.944 356.758 393.517 356.366C396.622 355.592 398.853 353.958 400.21 351.465C401.557 348.931 401.761 345.78 400.821 342.012C400.408 340.356 399.856 338.845 399.163 337.479C398.471 336.112 397.623 335.005 396.62 334.155C395.606 333.265 394.427 332.679 393.082 332.399C391.768 332.067 390.283 332.108 388.627 332.52C387.054 332.913 385.672 333.543 384.481 334.412C383.291 335.28 382.416 336.092 381.856 336.847L386.95 357.277Z" fill="#FFA500"/>
<rect x="156.25" y="23.8188" width="236" height="128" rx="32" transform="rotate(-5 156.25 23.8188)" fill="#FFA500" stroke="#FFA500" stroke-width="6"/>
<path d="M260.777 80.7172C261.112 84.5426 260.809 87.9312 259.868 90.8831C258.923 93.7925 257.449 96.2772 255.444 98.337C253.437 100.354 250.965 101.963 248.029 103.162C245.089 104.318 241.813 105.055 238.2 105.371C236.415 105.527 234.431 105.615 232.248 105.634C230.112 105.693 228.154 105.586 226.374 105.313L222.625 62.4689C224.331 61.8914 226.241 61.4459 228.355 61.1324C230.508 60.7728 232.477 60.5149 234.262 60.3587C237.875 60.0426 241.231 60.2201 244.331 60.8911C247.426 61.5197 250.14 62.6743 252.471 64.3548C254.799 65.9928 256.682 68.1837 258.122 70.9274C259.557 73.6285 260.442 76.8918 260.777 80.7172ZM238.236 99.9068C244.101 99.3936 248.349 97.523 250.979 94.2948C253.605 91.0241 254.682 86.6898 254.21 81.2917C253.738 75.8937 251.926 71.8334 248.776 69.111C245.622 66.3461 241.112 65.2202 235.246 65.7333C233.503 65.8858 232.145 66.0261 231.171 66.1541C230.24 66.2784 229.585 66.3785 229.206 66.4545L232.162 100.245C232.548 100.254 233.211 100.239 234.15 100.2C235.131 100.157 236.493 100.059 238.236 99.9068ZM280.783 67.1459C281.293 67.1013 281.871 67.0936 282.516 67.1228C283.2 67.1058 283.866 67.1332 284.515 67.2049C285.16 67.2341 285.743 67.2902 286.264 67.3731C286.824 67.4097 287.235 67.4594 287.498 67.5221L286.929 72.7756C286.447 72.6465 285.644 72.524 284.52 72.4082C283.435 72.2462 282.043 72.2395 280.343 72.3882C279.238 72.4849 278.144 72.7091 277.061 73.0608C276.017 73.3663 275.328 73.5764 274.996 73.6912L277.433 101.553L271.504 102.072L268.726 70.3208C270.084 69.688 271.786 69.068 273.832 68.4608C275.873 67.811 278.191 67.3727 280.783 67.1459ZM302.027 99.4011L296.098 99.9199L293.197 66.7665L299.126 66.2478L302.027 99.4011ZM295.606 60.5168C294.543 60.6098 293.599 60.3497 292.775 59.7366C291.989 59.0772 291.544 58.1525 291.44 56.9623C291.336 55.7722 291.615 54.8055 292.278 54.0622C292.98 53.2727 293.862 52.8315 294.925 52.7385C295.988 52.6456 296.912 52.9288 297.698 53.5881C298.522 54.2012 298.987 55.1029 299.091 56.293C299.195 57.4831 298.896 58.4729 298.194 59.2624C297.531 60.0057 296.668 60.4238 295.606 60.5168ZM322.225 98.2764C318.563 98.5112 315.901 97.9517 314.241 96.598C312.58 95.2442 311.613 92.9946 311.337 89.8493L307.857 50.0653L313.697 48.5264L317.183 88.3742C317.269 89.3518 317.424 90.152 317.65 90.7747C317.876 91.3973 318.197 91.8832 318.613 92.2323C319.029 92.5814 319.565 92.8343 320.221 92.991C320.873 93.1053 321.673 93.1852 322.619 93.2309L322.225 98.2764ZM339.659 96.7512C335.996 96.986 333.334 96.4265 331.674 95.0727C330.014 93.719 329.046 91.4694 328.771 88.3241L325.29 48.54L331.13 47.0012L334.617 86.849C334.702 87.8266 334.858 88.6267 335.083 89.2494C335.309 89.8721 335.63 90.358 336.046 90.7071C336.462 91.0561 336.998 91.309 337.654 91.4658C338.307 91.58 339.106 91.66 340.052 91.7057L339.659 96.7512Z" fill="#0F0F0F"/>
<path d="M654.081 521.413C659.476 524.528 662.58 527.514 663.393 530.373C664.28 533.231 662.691 535.834 658.626 538.181C656.409 539.46 654.1 540.324 651.698 540.772C649.37 541.22 646.95 541.295 644.437 540.996C641.998 540.698 639.486 540.058 636.899 539.076C634.313 538.095 631.671 536.826 628.973 535.269L624.705 532.805L610.461 541.028L605.084 537.925L642.941 516.07C644.825 516.731 646.747 517.563 648.705 518.566C650.737 519.568 652.53 520.518 654.081 521.413ZM649.814 524.389C647.523 523.067 645.712 522.085 644.382 521.445L629.306 530.149L633.352 532.485C635.199 533.551 636.973 534.447 638.673 535.173C640.41 535.877 642.054 536.357 643.606 536.613C645.232 536.869 646.821 536.869 648.373 536.613C649.924 536.357 651.476 535.781 653.028 534.885C654.506 534.031 655.43 533.157 655.8 532.261C656.206 531.386 656.188 530.501 655.744 529.605C655.375 528.709 654.654 527.824 653.583 526.949C652.511 526.075 651.255 525.221 649.814 524.389ZM646.566 562.512C643.462 560.635 641.891 558.939 641.854 557.424C641.817 555.91 643.166 554.363 645.9 552.784L680.487 532.818L686.528 535.281L651.886 555.28C651.037 555.771 650.408 556.219 650.002 556.624C649.595 557.03 649.392 557.424 649.392 557.808C649.392 558.192 649.577 558.597 649.947 559.024C650.353 559.429 650.907 559.899 651.609 560.432L646.566 562.512ZM677.407 578.717C675.929 578.205 674.044 577.48 671.753 576.541C669.499 575.624 667.098 574.429 664.548 572.957C662.331 571.677 660.779 570.419 659.892 569.182C659.042 567.923 658.747 566.686 659.005 565.47C659.264 564.254 659.985 563.07 661.167 561.918C662.386 560.745 663.975 559.593 665.934 558.462L682.118 549.119L687.273 552.095L672.197 560.798C668.687 562.825 666.728 564.595 666.322 566.11C665.915 567.624 667.024 569.139 669.647 570.653C670.202 570.973 670.793 571.293 671.421 571.613C672.049 571.933 672.64 572.232 673.195 572.509C673.786 572.765 674.303 573 674.746 573.213C675.264 573.427 675.652 573.565 675.91 573.629L700.243 559.582L705.397 562.558L677.407 578.717ZM706.407 593.091C705.668 593.006 704.412 592.729 702.638 592.259C700.938 591.79 699.239 591.065 697.539 590.083C695.802 589.081 694.435 587.972 693.437 586.756C692.477 585.561 691.996 584.302 691.996 582.98C692.033 581.636 692.588 580.271 693.659 578.884C694.731 577.497 696.467 576.111 698.869 574.724C700.975 573.508 703.211 572.58 705.576 571.94C707.978 571.279 710.398 570.927 712.837 570.884C715.349 570.842 717.825 571.119 720.264 571.716C722.74 572.292 725.068 573.21 727.248 574.468C729.649 575.855 731.552 577.167 732.957 578.404C734.435 579.641 735.636 580.697 736.559 581.572L710.841 596.419C706.407 598.979 702.047 600.174 697.761 600.003C693.474 599.832 689.003 598.403 684.347 595.715C682.537 594.67 680.966 593.593 679.636 592.483C678.343 591.395 677.308 590.393 676.532 589.475L681.964 587.428C682.592 588.26 683.498 589.187 684.68 590.211C685.862 591.278 687.267 592.281 688.892 593.219C691.959 594.99 694.768 595.907 697.317 595.971C699.904 596.056 702.527 595.331 705.188 593.795L706.407 593.091ZM727.746 580.708C727.377 580.324 726.804 579.844 726.028 579.268C725.326 578.692 724.236 577.977 722.758 577.124C719.987 575.524 716.938 574.81 713.613 574.98C710.324 575.172 707.183 576.132 704.19 577.86C702.527 578.82 701.308 579.759 700.532 580.676C699.793 581.615 699.387 582.511 699.313 583.364C699.276 584.238 699.534 585.049 700.089 585.796C700.68 586.564 701.474 587.236 702.472 587.812C703.839 588.601 705.28 589.219 706.795 589.667C708.347 590.094 709.714 590.35 710.897 590.435L727.746 580.708Z" fill="#0F0F0F"/>
<path d="M621.717 115.779C621.817 111.983 622.459 108.649 623.644 105.778C624.871 102.908 626.47 100.538 628.44 98.6688C630.453 96.7582 632.752 95.3459 635.337 94.4319C637.964 93.5191 640.728 93.1006 643.629 93.1765C646.486 93.2514 649.161 93.8122 651.651 94.8591C654.185 95.9071 656.385 97.4373 658.253 99.4495C660.123 101.419 661.574 103.869 662.607 106.798C663.682 109.728 664.17 113.092 664.071 116.888C663.972 120.684 663.308 124.017 662.081 126.887C660.896 129.758 659.318 132.15 657.347 134.062C655.378 135.931 653.1 137.322 650.515 138.236C647.973 139.151 645.273 139.571 642.416 139.497C639.515 139.421 636.777 138.858 634.201 137.809C631.668 136.761 629.445 135.252 627.533 133.281C625.665 131.269 624.194 128.797 623.118 125.867C622.085 122.937 621.618 119.575 621.717 115.779ZM628.243 115.95C628.173 118.637 628.45 121.098 629.074 123.334C629.7 125.527 630.611 127.407 631.807 128.975C633.047 130.544 634.551 131.779 636.32 132.679C638.133 133.537 640.17 133.996 642.43 134.055C644.691 134.114 646.727 133.762 648.54 132.999C650.354 132.193 651.899 131.038 653.176 129.535C654.496 128.033 655.526 126.203 656.265 124.046C657.005 121.846 657.411 119.402 657.481 116.715C657.552 114.028 657.274 111.588 656.649 109.395C656.024 107.159 655.092 105.257 653.853 103.688C652.656 102.12 651.173 100.907 649.403 100.05C647.634 99.1501 645.619 98.6705 643.358 98.6113C641.098 98.5521 639.039 98.925 637.183 99.7301C635.37 100.494 633.804 101.626 632.484 103.128C631.207 104.631 630.198 106.483 629.458 108.683C628.718 110.84 628.314 113.263 628.243 115.95ZM682.303 140.221C678.637 140.04 676.056 139.182 674.56 137.649C673.063 136.116 672.356 133.772 672.439 130.616L673.484 90.6932L679.461 89.8254L678.414 129.812C678.388 130.793 678.452 131.605 678.606 132.25C678.76 132.894 679.024 133.413 679.398 133.807C679.772 134.201 680.276 134.513 680.91 134.743C681.545 134.93 682.33 135.1 683.265 135.253L682.303 140.221ZM712.017 114.11C711.307 113.494 710.277 112.891 708.927 112.3C707.577 111.71 706.091 111.394 704.47 111.351C702.764 111.307 701.284 111.588 700.031 112.195C698.821 112.761 697.817 113.589 697.021 114.678C696.225 115.724 695.637 116.989 695.257 118.473C694.876 119.957 694.664 121.552 694.619 123.258C694.518 127.139 695.398 130.171 697.262 132.354C699.127 134.494 701.658 135.606 704.857 135.69C706.478 135.732 707.823 135.704 708.893 135.603C710.006 135.462 710.864 135.314 711.465 135.159L712.017 114.11ZM712.603 91.7176L718.58 90.8497L717.305 139.537C715.93 139.885 714.171 140.223 712.028 140.551C709.886 140.879 707.428 141.007 704.656 140.934C702.097 140.867 699.804 140.402 697.778 139.538C695.752 138.674 694.033 137.476 692.622 135.946C691.211 134.415 690.128 132.573 689.374 130.419C688.663 128.223 688.343 125.782 688.413 123.095C688.48 120.536 688.862 118.199 689.557 116.083C690.296 113.968 691.325 112.16 692.644 110.658C693.964 109.156 695.552 108.002 697.409 107.197C699.308 106.393 701.451 106.023 703.84 106.085C705.759 106.135 707.437 106.435 708.874 106.985C710.353 107.536 711.45 108.056 712.162 108.544L712.603 91.7176ZM753.115 137.018C759.598 137.187 762.898 135.054 763.014 130.619C763.05 129.254 762.781 128.094 762.209 127.14C761.68 126.145 760.934 125.293 759.971 124.585C759.009 123.834 757.895 123.186 756.629 122.641C755.405 122.096 754.096 121.55 752.702 121.001C751.096 120.404 749.577 119.746 748.144 119.025C746.713 118.262 745.477 117.398 744.435 116.431C743.394 115.422 742.571 114.248 741.966 112.909C741.404 111.572 741.147 109.964 741.196 108.088C741.298 104.206 742.699 101.213 745.401 99.1067C748.102 97.0006 751.777 96.0085 756.426 96.1303C759.114 96.2006 761.537 96.5628 763.697 97.2169C765.9 97.8295 767.504 98.4904 768.51 99.1996L766.395 104.202C765.513 103.624 764.184 103.056 762.406 102.497C760.672 101.897 758.632 101.566 756.286 101.504C755.091 101.473 753.979 101.572 752.949 101.801C751.918 102.03 751.013 102.391 750.232 102.882C749.45 103.374 748.815 104.019 748.324 104.817C747.878 105.574 747.64 106.485 747.612 107.551C747.581 108.746 747.79 109.754 748.237 110.577C748.685 111.4 749.328 112.142 750.164 112.804C751.001 113.423 751.968 114.004 753.063 114.545C754.201 115.087 755.446 115.631 756.798 116.179C758.697 116.997 760.426 117.81 761.984 118.619C763.584 119.43 764.947 120.383 766.07 121.479C767.237 122.577 768.12 123.881 768.721 125.39C769.323 126.857 769.596 128.635 769.541 130.725C769.44 134.607 767.933 137.555 765.02 139.57C762.151 141.586 758.135 142.527 752.974 142.392C751.226 142.346 749.608 142.176 748.122 141.881C746.677 141.629 745.383 141.339 744.239 141.011C743.097 140.639 742.103 140.272 741.259 139.908C740.459 139.503 739.828 139.166 739.365 138.898L741.354 133.829C742.321 134.409 743.798 135.066 745.784 135.801C747.771 136.536 750.215 136.942 753.115 137.018ZM790.805 143.19C788.118 143.12 785.762 142.631 783.737 141.725C781.754 140.819 780.08 139.58 778.712 138.008C777.388 136.437 776.412 134.597 775.784 132.489C775.157 130.339 774.877 127.984 774.944 125.425C775.011 122.866 775.435 120.53 776.216 118.416C777.04 116.303 778.154 114.497 779.559 112.998C780.966 111.455 782.661 110.283 784.645 109.482C786.673 108.638 788.903 108.249 791.334 108.312C792.827 108.351 794.316 108.518 795.802 108.813C797.289 109.108 798.707 109.551 800.057 110.141L798.581 115.16C797.697 114.71 796.661 114.342 795.473 114.055C794.328 113.768 793.095 113.608 791.772 113.573C788.446 113.486 785.859 114.464 784.013 116.507C782.21 118.552 781.255 121.578 781.15 125.588C781.103 127.379 781.252 129.026 781.597 130.529C781.985 132.033 782.591 133.329 783.416 134.418C784.284 135.508 785.392 136.369 786.741 137.002C788.092 137.592 789.748 137.913 791.71 137.964C793.288 138.006 794.721 137.894 796.008 137.629C797.296 137.364 798.306 137.07 799.04 136.748L799.741 141.76C799.395 141.964 798.898 142.164 798.253 142.361C797.609 142.515 796.88 142.645 796.066 142.752C795.251 142.901 794.374 143.006 793.433 143.067C792.534 143.172 791.658 143.213 790.805 143.19ZM806.106 142.823L807.379 94.1994L813.356 93.3315L812.91 110.35C814.03 109.952 815.212 109.663 816.454 109.482C817.74 109.26 819.002 109.165 820.239 109.197C822.883 109.266 825.07 109.708 826.798 110.521C828.528 111.292 829.887 112.373 830.875 113.765C831.907 115.115 832.611 116.734 832.988 118.622C833.366 120.51 833.525 122.584 833.466 124.845L832.976 143.526L827.027 143.371L827.482 125.968C827.536 123.921 827.432 122.169 827.172 120.711C826.954 119.254 826.537 118.069 825.92 117.157C825.304 116.244 824.468 115.582 823.411 115.17C822.356 114.716 821.04 114.468 819.462 114.427C818.822 114.41 818.16 114.435 817.475 114.503C816.79 114.57 816.126 114.659 815.483 114.771C814.884 114.84 814.327 114.932 813.811 115.047C813.339 115.163 812.995 115.26 812.779 115.34L812.056 142.979L806.106 142.823ZM872.457 127.914C872.388 130.559 871.942 132.937 871.118 135.05C870.294 137.162 869.159 138.968 867.711 140.467C866.306 141.966 864.633 143.118 862.691 143.92C860.75 144.68 858.65 145.031 856.389 144.972C854.129 144.913 852.049 144.453 850.151 143.592C848.254 142.689 846.622 141.451 845.255 139.878C843.93 138.307 842.912 136.445 842.2 134.293C841.488 132.14 841.167 129.741 841.236 127.097C841.304 124.495 841.75 122.138 842.573 120.026C843.398 117.87 844.513 116.043 845.918 114.543C847.366 113.045 849.06 111.915 851.001 111.155C852.942 110.352 855.043 109.98 857.304 110.04C859.564 110.099 861.643 110.58 863.54 111.483C865.438 112.344 867.05 113.56 868.374 115.131C869.742 116.704 870.781 118.587 871.492 120.783C872.203 122.935 872.525 125.313 872.457 127.914ZM866.251 127.752C866.35 123.999 865.574 121.012 863.925 118.792C862.32 116.531 860.067 115.362 857.167 115.286C854.266 115.21 851.934 116.259 850.17 118.432C848.449 120.564 847.54 123.506 847.442 127.259C847.343 131.013 848.097 134.02 849.702 136.282C851.351 138.502 853.626 139.65 856.527 139.726C859.427 139.801 861.737 138.774 863.458 136.642C865.222 134.469 866.153 131.505 866.251 127.752ZM910.194 128.903C910.125 131.547 909.679 133.926 908.855 136.038C908.031 138.151 906.896 139.956 905.448 141.455C904.043 142.954 902.37 144.106 900.428 144.908C898.487 145.669 896.387 146.019 894.126 145.96C891.866 145.901 889.786 145.441 887.888 144.58C885.991 143.677 884.359 142.439 882.992 140.867C881.667 139.295 880.649 137.433 879.937 135.281C879.225 133.128 878.904 130.73 878.973 128.085C879.041 125.483 879.487 123.126 880.311 121.014C881.135 118.859 882.25 117.031 883.655 115.531C885.103 114.033 886.797 112.903 888.738 112.143C890.679 111.34 892.78 110.969 895.041 111.028C897.302 111.087 899.38 111.568 901.277 112.472C903.175 113.332 904.787 114.548 906.111 116.119C907.479 117.692 908.518 119.576 909.229 121.771C909.94 123.924 910.262 126.301 910.194 128.903ZM903.988 128.74C904.087 124.987 903.311 122 901.662 119.78C900.057 117.519 897.804 116.35 894.904 116.274C892.003 116.198 889.671 117.247 887.907 119.42C886.186 121.552 885.277 124.494 885.179 128.248C885.081 132.001 885.834 135.008 887.439 137.27C889.089 139.49 891.363 140.638 894.264 140.714C897.164 140.79 899.474 139.762 901.195 137.63C902.959 135.457 903.89 132.494 903.988 128.74ZM928.094 146.657C924.428 146.476 921.847 145.619 920.35 144.086C918.854 142.553 918.147 140.208 918.23 137.052L919.275 97.1295L925.252 96.2616L924.205 136.248C924.179 137.229 924.243 138.042 924.397 138.686C924.551 139.33 924.815 139.849 925.189 140.243C925.562 140.637 926.066 140.949 926.701 141.179C927.336 141.366 928.121 141.536 929.056 141.689L928.094 146.657Z" fill="#FFA500"/>
<path d="M740.102 308.407L739.447 313.743L725.599 312.043L720.849 350.728L714.687 349.972L719.437 311.286L705.589 309.586L706.244 304.25L740.102 308.407ZM754.617 320.635C755.125 320.697 755.692 320.81 756.316 320.973C756.989 321.098 757.635 321.264 758.254 321.469C758.879 321.631 759.438 321.807 759.931 321.997C760.471 322.149 760.863 322.283 761.106 322.399L759.458 327.42C759.013 327.193 758.253 326.906 757.178 326.559C756.15 326.175 754.79 325.879 753.096 325.671C751.995 325.536 750.878 325.528 749.746 325.647C748.661 325.729 747.944 325.791 747.595 325.834L744.187 353.594L738.279 352.868L742.163 321.234C743.623 320.897 745.417 320.645 747.544 320.476C749.676 320.265 752.034 320.318 754.617 320.635ZM774.485 352.994C775.882 353.165 777.113 353.295 778.177 353.382C779.289 353.433 780.215 353.418 780.955 353.337L782.164 343.491C781.767 343.227 781.089 342.972 780.13 342.725C779.22 342.441 778.087 342.216 776.731 342.05C775.842 341.941 774.881 341.887 773.85 341.889C772.86 341.897 771.916 342.06 771.017 342.38C770.165 342.662 769.42 343.129 768.781 343.782C768.147 344.392 767.76 345.268 767.62 346.412C767.36 348.529 767.856 350.095 769.107 351.108C770.363 352.079 772.156 352.708 774.485 352.994ZM777.611 323.329C779.983 323.621 781.934 324.183 783.466 325.015C785.044 325.811 786.251 326.84 787.084 328.104C787.965 329.329 788.522 330.752 788.753 332.371C788.989 333.947 788.993 335.667 788.764 337.53L786.229 358.175C785.71 358.198 784.975 358.236 784.022 358.291C783.118 358.309 782.086 358.311 780.927 358.298C779.768 358.285 778.505 358.237 777.14 358.156C775.811 358.121 774.491 358.024 773.178 357.863C771.315 357.634 769.623 357.233 768.103 356.659C766.583 356.086 765.3 355.326 764.256 354.381C763.216 353.394 762.462 352.184 761.993 350.75C761.524 349.317 761.407 347.648 761.641 345.742C761.865 343.921 762.417 342.399 763.298 341.174C764.222 339.955 765.368 339.021 766.737 338.372C768.106 337.724 769.661 337.313 771.402 337.14C773.143 336.967 774.945 336.994 776.808 337.223C777.401 337.296 778.01 337.414 778.635 337.576C779.265 337.697 779.847 337.854 780.382 338.049C780.965 338.206 781.463 338.353 781.876 338.49C782.289 338.627 782.577 338.727 782.742 338.79L782.944 337.138C783.064 336.164 783.075 335.198 782.978 334.241C782.886 333.241 782.608 332.347 782.146 331.559C781.689 330.73 781 330.043 780.078 329.5C779.203 328.92 778.004 328.536 776.479 328.349C774.531 328.11 772.798 328.047 771.279 328.162C769.808 328.239 768.695 328.382 767.938 328.59L767.84 323.613C768.644 323.368 769.953 323.206 771.768 323.128C773.589 323.007 775.536 323.075 777.611 323.329ZM820.923 346.315C821.396 342.461 820.807 339.38 819.156 337.071C817.505 334.762 815.092 333.412 811.915 333.022C810.137 332.804 808.731 332.696 807.699 332.698C806.71 332.706 805.908 332.758 805.295 332.854L802.736 353.69C803.383 354.371 804.351 355.07 805.638 355.787C806.926 356.504 808.374 356.961 809.983 357.159C811.677 357.367 813.154 357.247 814.412 356.8C815.718 356.315 816.818 355.591 817.71 354.626C818.607 353.618 819.314 352.415 819.829 351.017C820.35 349.576 820.715 348.009 820.923 346.315ZM827.084 347.072C826.777 349.57 826.155 351.837 825.218 353.871C824.323 355.91 823.146 357.614 821.688 358.983C820.231 360.351 818.518 361.345 816.551 361.963C814.626 362.586 812.478 362.752 810.106 362.461C808.2 362.227 806.538 361.765 805.118 361.075C803.74 360.39 802.72 359.77 802.058 359.216L800.435 372.429L794.528 371.704L799.902 327.936C801.341 327.769 803.121 327.622 805.243 327.496C807.413 327.332 809.874 327.42 812.626 327.758C815.167 328.07 817.405 328.753 819.339 329.807C821.272 330.861 822.868 332.218 824.126 333.877C825.384 335.536 826.262 337.492 826.759 339.745C827.303 341.962 827.412 344.404 827.084 347.072Z" fill="#0F0F0F"/>
<g clip-path="url(#clip0_1_132)">
<path d="M388.987 695.424L362.772 576L282.009 667.286L324.734 657.907L311.243 709.288L344.108 717.976L357.5 667.567L388.987 695.424ZM338.633 708.552L320.655 703.803L335.39 647.677L303.447 654.687L358.493 592.469L376.388 673.986L353.261 653.524L338.633 708.552Z" fill="#FFFFFF" stroke="#FFFFFF"/>
</g>
<defs>
<clipPath id="clip0_1_132">
<rect width="185" height="185" fill="white" transform="translate(367.585 545) rotate(41.5)"/>
</clipPath>
</defs>
</svg>
