<svg width="775" height="265" viewBox="0 0 775 265" fill="none" xmlns="http://www.w3.org/2000/svg">
<rect x="217.052" y="126.686" width="552" height="135" rx="32" transform="rotate(-1 217.052 126.686)" fill="#0F0F0F" stroke="#FFA500" stroke-width="6"/>
<path d="M361.217 192.18L645.174 187.223" stroke="#FFA500" stroke-width="6" stroke-linecap="round"/>
<path d="M680.359 187.505C680.424 191.238 679.792 194.119 678.461 196.148C677.131 198.155 675.261 199.18 672.85 199.222C670.44 199.264 668.535 198.305 667.135 196.345C665.735 194.364 665.002 191.507 664.937 187.774C664.905 185.919 665.047 184.273 665.363 182.838C665.7 181.381 666.191 180.157 666.835 179.164C667.501 178.171 668.298 177.41 669.228 176.882C670.179 176.353 671.251 176.078 672.446 176.057C674.856 176.015 676.761 176.985 678.162 178.966C679.561 180.926 680.294 183.772 680.359 187.505ZM676.36 187.575C676.339 186.423 676.257 185.347 676.111 184.347C675.966 183.346 675.737 182.486 675.426 181.766C675.136 181.025 674.752 180.445 674.275 180.026C673.799 179.608 673.208 179.405 672.505 179.417C671.801 179.429 671.207 179.653 670.724 180.088C670.262 180.523 669.888 181.116 669.603 181.868C669.338 182.598 669.151 183.465 669.04 184.47C668.951 185.475 668.917 186.553 668.937 187.705C668.957 188.856 669.029 189.933 669.153 190.933C669.299 191.933 669.516 192.804 669.807 193.546C670.118 194.266 670.512 194.835 670.989 195.254C671.487 195.672 672.088 195.875 672.792 195.862C673.496 195.85 674.078 195.627 674.54 195.192C675.002 194.757 675.365 194.175 675.63 193.445C675.915 192.693 676.113 191.815 676.224 190.81C676.334 189.805 676.38 188.727 676.36 187.575ZM697.043 181.901C697.057 182.669 696.91 183.429 696.603 184.181C696.296 184.912 695.892 185.634 695.392 186.347C694.914 187.038 694.36 187.719 693.732 188.392C693.103 189.043 692.474 189.683 691.845 190.313C691.509 190.639 691.132 191.03 690.713 191.485C690.295 191.94 689.897 192.395 689.521 192.85C689.145 193.305 688.822 193.748 688.552 194.179C688.282 194.589 688.139 194.933 688.122 195.211L697.977 195.039L698.034 198.302L683.924 198.549C683.899 198.378 683.885 198.176 683.881 197.941C683.877 197.685 683.873 197.493 683.871 197.365C683.853 196.341 683.997 195.4 684.302 194.541C684.628 193.661 685.051 192.843 685.571 192.087C686.091 191.331 686.676 190.617 687.326 189.944C687.976 189.271 688.626 188.609 689.276 187.958C689.779 187.458 690.261 186.97 690.722 186.492C691.183 186.015 691.581 185.549 691.914 185.095C692.269 184.619 692.548 184.145 692.753 183.672C692.958 183.178 693.056 182.675 693.047 182.163C693.028 181.054 692.694 180.27 692.046 179.812C691.398 179.354 690.615 179.133 689.698 179.149C689.101 179.159 688.548 179.254 688.039 179.434C687.53 179.613 687.075 179.824 686.674 180.066C686.294 180.307 685.957 180.558 685.663 180.82C685.368 181.059 685.147 181.255 685.001 181.407L683.034 178.721C683.914 177.852 684.948 177.151 686.133 176.619C687.34 176.064 688.636 175.775 690.023 175.751C692.39 175.709 694.139 176.244 695.268 177.355C696.417 178.445 697.009 179.96 697.043 181.901ZM706.694 184.069C706.707 184.816 706.462 185.428 705.958 185.906C705.476 186.384 704.882 186.629 704.178 186.641C703.453 186.654 702.841 186.43 702.342 185.969C701.844 185.509 701.588 184.905 701.575 184.158C701.562 183.412 701.796 182.8 702.279 182.322C702.761 181.823 703.364 181.567 704.09 181.554C704.794 181.542 705.395 181.777 705.894 182.259C706.414 182.719 706.681 183.322 706.694 184.069ZM706.903 196.035C706.916 196.782 706.671 197.394 706.167 197.872C705.684 198.35 705.091 198.595 704.387 198.607C703.662 198.62 703.05 198.396 702.551 197.935C702.053 197.475 701.797 196.871 701.784 196.125C701.771 195.378 702.005 194.766 702.488 194.288C702.97 193.789 703.573 193.533 704.299 193.52C705.002 193.508 705.604 193.743 706.103 194.225C706.623 194.685 706.89 195.289 706.903 196.035ZM723.727 181.435C723.74 182.203 723.593 182.963 723.286 183.715C722.979 184.446 722.576 185.168 722.076 185.881C721.597 186.572 721.044 187.254 720.415 187.926C719.787 188.577 719.158 189.218 718.529 189.847C718.193 190.173 717.816 190.564 717.397 191.019C716.978 191.475 716.581 191.93 716.205 192.384C715.828 192.839 715.505 193.282 715.236 193.713C714.965 194.124 714.822 194.467 714.806 194.745L724.66 194.573L724.717 197.837L710.607 198.083C710.583 197.913 710.569 197.71 710.565 197.475C710.56 197.22 710.557 197.028 710.554 196.9C710.537 195.876 710.68 194.934 710.985 194.076C711.311 193.195 711.734 192.377 712.255 191.621C712.775 190.865 713.36 190.151 714.009 189.478C714.659 188.805 715.309 188.143 715.959 187.492C716.462 186.992 716.945 186.504 717.406 186.026C717.867 185.549 718.264 185.083 718.598 184.629C718.952 184.154 719.232 183.679 719.437 183.206C719.642 182.712 719.739 182.209 719.731 181.697C719.711 180.588 719.377 179.804 718.729 179.346C718.081 178.888 717.299 178.667 716.381 178.683C715.784 178.694 715.231 178.789 714.722 178.968C714.213 179.148 713.758 179.358 713.357 179.6C712.977 179.841 712.64 180.093 712.346 180.354C712.051 180.594 711.831 180.79 711.684 180.941L709.717 178.255C710.598 177.387 711.631 176.686 712.817 176.153C714.023 175.598 715.32 175.309 716.706 175.285C719.074 175.244 720.822 175.778 721.951 176.89C723.101 177.979 723.693 179.494 723.727 181.435ZM743.342 191.559C743.358 192.476 743.213 193.332 742.907 194.127C742.6 194.921 742.132 195.612 741.502 196.199C740.873 196.786 740.081 197.248 739.126 197.585C738.193 197.921 737.108 198.1 735.871 198.122C734.421 198.147 733.212 197.966 732.245 197.577C731.278 197.189 730.501 196.69 729.915 196.082C729.328 195.473 728.9 194.819 728.632 194.12C728.385 193.399 728.256 192.718 728.245 192.078C728.233 191.438 728.308 190.85 728.47 190.314C728.652 189.756 728.899 189.25 729.211 188.797C729.523 188.322 729.878 187.889 730.277 187.498C730.675 187.107 731.096 186.758 731.539 186.452C730.546 185.786 729.797 185.063 729.293 184.283C728.809 183.48 728.557 182.503 728.537 181.351C728.523 180.519 728.669 179.727 728.976 178.975C729.304 178.201 729.772 177.521 730.381 176.935C730.989 176.348 731.728 175.876 732.596 175.52C733.465 175.163 734.432 174.976 735.499 174.957C736.757 174.935 737.827 175.098 738.708 175.445C739.61 175.792 740.343 176.249 740.908 176.815C741.494 177.381 741.921 178.013 742.189 178.713C742.458 179.412 742.598 180.092 742.609 180.754C742.63 181.927 742.328 182.978 741.704 183.906C741.08 184.813 740.356 185.54 739.534 186.088C740.804 186.749 741.746 187.522 742.359 188.407C742.993 189.292 743.321 190.343 743.342 191.559ZM732.051 191.948C732.056 192.268 732.126 192.608 732.261 192.968C732.395 193.329 732.614 193.655 732.918 193.949C733.222 194.242 733.61 194.491 734.083 194.697C734.556 194.88 735.144 194.966 735.848 194.954C736.488 194.943 737.041 194.848 737.507 194.669C737.973 194.49 738.353 194.259 738.647 193.977C738.941 193.673 739.159 193.338 739.302 192.973C739.444 192.587 739.512 192.201 739.506 191.818C739.495 191.22 739.369 190.7 739.126 190.256C738.884 189.812 738.536 189.434 738.082 189.122C737.65 188.788 737.133 188.509 736.532 188.285C735.93 188.039 735.265 187.827 734.536 187.648C733.777 188.152 733.169 188.76 732.712 189.472C732.254 190.162 732.034 190.988 732.051 191.948ZM738.835 180.884C738.83 180.606 738.761 180.309 738.627 179.991C738.515 179.652 738.317 179.346 738.035 179.073C737.774 178.8 737.44 178.572 737.031 178.387C736.622 178.202 736.13 178.114 735.554 178.124C734.978 178.134 734.479 178.239 734.055 178.439C733.653 178.616 733.327 178.857 733.076 179.16C732.825 179.442 732.638 179.754 732.516 180.098C732.394 180.42 732.335 180.741 732.341 181.061C732.355 181.871 732.667 182.634 733.277 183.349C733.908 184.063 734.942 184.621 736.379 185.023C737.159 184.519 737.768 183.953 738.205 183.327C738.642 182.679 738.852 181.865 738.835 180.884Z" fill="#FFA500"/>
<circle cx="289.719" cy="192.928" r="53.5" transform="rotate(-1 289.719 192.928)" fill="#FFA500"/>
<path d="M276.544 211.675L275.903 174.96C275.885 173.923 277.74 173.164 279.047 173.971L309.814 191.383C310.974 191.985 310.998 193.333 309.859 193.975L279.723 212.657C278.442 213.406 276.564 212.816 276.544 211.675Z" fill="#0F0F0F"/>
<rect x="109.178" y="84.8763" width="552" height="135" rx="32" transform="rotate(-3.5 109.178 84.8763)" fill="#0F0F0F" stroke="#FFA500" stroke-width="6"/>
<path d="M256.062 144.02L539.532 126.682" stroke="#FFA500" stroke-width="6" stroke-linecap="round"/>
<path d="M574.697 125.429C574.925 129.155 574.418 132.061 573.178 134.146C571.936 136.209 570.112 137.315 567.706 137.462C565.3 137.609 563.355 136.734 561.871 134.837C560.386 132.919 559.529 130.097 559.301 126.37C559.188 124.518 559.258 122.868 559.512 121.42C559.785 119.95 560.222 118.705 560.822 117.685C561.443 116.664 562.207 115.869 563.113 115.301C564.04 114.731 565.099 114.41 566.292 114.337C568.698 114.19 570.644 115.075 572.129 116.994C573.613 118.891 574.469 121.702 574.697 125.429ZM570.704 125.673C570.634 124.523 570.504 123.452 570.315 122.459C570.126 121.466 569.86 120.616 569.518 119.911C569.196 119.182 568.787 118.619 568.293 118.222C567.798 117.825 567.2 117.648 566.497 117.691C565.794 117.734 565.211 117.983 564.747 118.439C564.305 118.894 563.957 119.503 563.705 120.266C563.472 121.007 563.323 121.882 563.256 122.89C563.211 123.898 563.224 124.976 563.294 126.126C563.364 127.276 563.483 128.348 563.651 129.342C563.84 130.335 564.096 131.196 564.418 131.924C564.76 132.63 565.179 133.182 565.673 133.579C566.189 133.975 566.798 134.151 567.501 134.108C568.204 134.065 568.776 133.816 569.219 133.362C569.661 132.907 569.999 132.31 570.231 131.569C570.484 130.805 570.643 129.919 570.71 128.911C570.776 127.902 570.774 126.823 570.704 125.673ZM591.121 119.102C591.167 119.869 591.054 120.635 590.78 121.399C590.505 122.143 590.133 122.882 589.665 123.616C589.217 124.327 588.694 125.032 588.096 125.731C587.496 126.409 586.895 127.076 586.294 127.733C585.973 128.073 585.613 128.48 585.215 128.953C584.816 129.426 584.439 129.898 584.083 130.369C583.727 130.839 583.424 131.296 583.173 131.739C582.921 132.161 582.793 132.51 582.788 132.788L592.626 132.187L592.825 135.445L578.74 136.306C578.708 136.137 578.685 135.935 578.671 135.701C578.655 135.446 578.643 135.254 578.635 135.126C578.573 134.104 578.675 133.158 578.943 132.286C579.23 131.392 579.617 130.557 580.104 129.779C580.59 129.001 581.144 128.262 581.763 127.561C582.383 126.861 583.004 126.171 583.625 125.492C584.106 124.971 584.566 124.462 585.006 123.965C585.446 123.467 585.822 122.985 586.136 122.517C586.469 122.026 586.728 121.54 586.912 121.059C587.095 120.556 587.171 120.049 587.14 119.538C587.072 118.431 586.704 117.662 586.037 117.233C585.369 116.804 584.578 116.617 583.662 116.673C583.066 116.709 582.518 116.829 582.017 117.03C581.516 117.232 581.071 117.462 580.681 117.721C580.312 117.979 579.986 118.244 579.704 118.518C579.42 118.771 579.208 118.976 579.068 119.134L576.985 116.536C577.828 115.63 578.829 114.885 579.991 114.301C581.172 113.694 582.454 113.349 583.838 113.264C586.202 113.119 587.972 113.577 589.148 114.638C590.345 115.677 591.002 117.165 591.121 119.102ZM600.857 120.847C600.902 121.592 600.684 122.215 600.201 122.715C599.74 123.213 599.158 123.484 598.456 123.527C597.732 123.571 597.111 123.374 596.592 122.935C596.074 122.497 595.792 121.905 595.746 121.16C595.701 120.414 595.908 119.793 596.37 119.294C596.829 118.774 597.421 118.492 598.145 118.448C598.848 118.405 599.459 118.614 599.979 119.073C600.518 119.511 600.811 120.102 600.857 120.847ZM601.587 132.793C601.633 133.538 601.414 134.161 600.932 134.66C600.471 135.159 599.889 135.429 599.186 135.472C598.462 135.517 597.841 135.32 597.323 134.881C596.804 134.443 596.522 133.851 596.477 133.105C596.431 132.36 596.639 131.738 597.1 131.24C597.56 130.72 598.152 130.438 598.876 130.394C599.578 130.351 600.19 130.559 600.709 131.019C601.249 131.456 601.542 132.048 601.587 132.793ZM617.758 117.473C617.805 118.24 617.692 119.005 617.418 119.77C617.143 120.514 616.771 121.252 616.303 121.986C615.855 122.698 615.332 123.403 614.733 124.102C614.134 124.78 613.533 125.447 612.932 126.104C612.611 126.444 612.251 126.851 611.853 127.324C611.454 127.797 611.077 128.269 610.721 128.74C610.365 129.21 610.062 129.667 609.811 130.11C609.559 130.531 609.431 130.881 609.426 131.159L619.264 130.558L619.463 133.815L605.377 134.677C605.346 134.508 605.323 134.306 605.308 134.072C605.293 133.817 605.281 133.625 605.273 133.497C605.211 132.475 605.313 131.528 605.58 130.657C605.868 129.763 606.255 128.927 606.741 128.149C607.228 127.372 607.781 126.633 608.401 125.932C609.021 125.232 609.641 124.542 610.262 123.863C610.743 123.342 611.204 122.832 611.644 122.335C612.083 121.838 612.46 121.356 612.773 120.888C613.107 120.397 613.366 119.911 613.55 119.43C613.733 118.927 613.809 118.42 613.777 117.909C613.71 116.802 613.342 116.033 612.675 115.604C612.007 115.174 611.216 114.988 610.3 115.044C609.704 115.08 609.155 115.199 608.655 115.401C608.154 115.603 607.709 115.833 607.318 116.092C606.949 116.349 606.624 116.615 606.341 116.889C606.057 117.141 605.846 117.347 605.706 117.505L603.623 114.907C604.465 114.001 605.467 113.255 606.628 112.672C607.81 112.065 609.092 111.719 610.476 111.635C612.84 111.49 614.61 111.948 615.786 113.009C616.982 114.047 617.64 115.535 617.758 117.473ZM637.796 126.731C637.852 127.647 637.745 128.508 637.473 129.316C637.202 130.123 636.765 130.834 636.161 131.448C635.558 132.062 634.786 132.558 633.848 132.936C632.93 133.312 631.854 133.538 630.619 133.614C629.171 133.703 627.956 133.574 626.973 133.228C625.99 132.882 625.192 132.418 624.579 131.835C623.967 131.253 623.511 130.618 623.212 129.931C622.934 129.222 622.775 128.547 622.736 127.909C622.697 127.27 622.746 126.679 622.884 126.136C623.042 125.571 623.267 125.055 623.559 124.588C623.85 124.1 624.186 123.652 624.567 123.244C624.948 122.836 625.353 122.469 625.782 122.144C624.761 121.522 623.981 120.833 623.443 120.075C622.925 119.294 622.631 118.329 622.561 117.179C622.51 116.349 622.621 115.551 622.895 114.786C623.189 113.999 623.627 113.299 624.21 112.686C624.792 112.074 625.509 111.57 626.361 111.176C627.214 110.782 628.172 110.552 629.237 110.487C630.493 110.41 631.569 110.526 632.464 110.835C633.38 111.142 634.133 111.566 634.722 112.107C635.332 112.647 635.786 113.261 636.085 113.948C636.383 114.635 636.553 115.308 636.593 115.968C636.665 117.14 636.409 118.202 635.826 119.157C635.242 120.091 634.551 120.849 633.753 121.432C635.051 122.036 636.026 122.768 636.677 123.626C637.349 124.482 637.722 125.517 637.796 126.731ZM626.533 127.612C626.553 127.932 626.637 128.268 626.787 128.623C626.937 128.977 627.17 129.294 627.487 129.574C627.803 129.854 628.202 130.086 628.683 130.27C629.164 130.433 629.755 130.493 630.458 130.45C631.096 130.411 631.645 130.292 632.103 130.093C632.561 129.894 632.931 129.647 633.212 129.352C633.492 129.035 633.695 128.692 633.822 128.321C633.948 127.928 633.999 127.54 633.975 127.157C633.939 126.561 633.79 126.046 633.528 125.613C633.267 125.181 632.902 124.818 632.436 124.526C631.989 124.211 631.46 123.955 630.85 123.758C630.238 123.538 629.564 123.355 628.828 123.208C628.092 123.745 627.511 124.379 627.085 125.11C626.659 125.82 626.474 126.654 626.533 127.612ZM632.828 116.263C632.811 115.986 632.729 115.692 632.582 115.38C632.454 115.046 632.244 114.749 631.95 114.489C631.678 114.228 631.333 114.014 630.917 113.847C630.501 113.68 630.005 113.614 629.43 113.649C628.855 113.684 628.361 113.811 627.946 114.029C627.552 114.224 627.237 114.478 626.999 114.792C626.761 115.084 626.588 115.405 626.481 115.753C626.373 116.081 626.328 116.404 626.348 116.723C626.397 117.532 626.742 118.281 627.383 118.968C628.045 119.654 629.102 120.167 630.555 120.505C631.313 119.968 631.896 119.376 632.306 118.731C632.714 118.065 632.888 117.242 632.828 116.263Z" fill="#FFA500"/>
<circle cx="184.665" cy="147.885" r="53.5" transform="rotate(-3.5 184.665 147.885)" fill="#FFA500"/>
<path d="M172.32 167.19L170.079 130.538C170.015 129.502 171.835 128.663 173.177 129.413L204.674 145.465C205.859 146.017 205.941 147.363 204.832 148.054L175.539 168.033C174.292 168.836 172.39 168.329 172.32 167.19Z" fill="#FFA500"/>
<rect x="3.34325" y="70.6151" width="552" height="135" rx="32" transform="rotate(-7 3.34325 70.6151)" fill="#FFA500" stroke="#0F0F0F" stroke-width="6"/>
<path d="M153.564 120.681L435.448 86.0701" stroke="black" stroke-width="6" stroke-linecap="round"/>
<path d="M470.47 82.6727C470.925 86.3782 470.597 89.3093 469.486 91.4661C468.373 93.6017 466.62 94.8164 464.227 95.1102C461.834 95.404 459.839 94.6495 458.242 92.8466C456.643 91.0226 455.616 88.2579 455.161 84.5524C454.934 82.7102 454.904 81.059 455.068 79.5987C455.251 78.1147 455.611 76.8453 456.148 75.7907C456.706 74.7335 457.42 73.8936 458.289 73.271C459.18 72.6458 460.218 72.2605 461.403 72.1149C463.796 71.8211 465.792 72.5862 467.392 74.4102C468.989 76.213 470.015 78.9672 470.47 82.6727ZM466.499 83.1602C466.359 82.0167 466.164 80.9552 465.915 79.9756C465.666 78.996 465.349 78.1645 464.964 77.481C464.598 76.7737 464.156 76.2369 463.638 75.8706C463.12 75.5043 462.512 75.364 461.813 75.4498C461.114 75.5356 460.547 75.8202 460.112 76.3034C459.698 76.7841 459.389 77.4132 459.183 78.1907C458.996 78.9444 458.901 79.8267 458.896 80.8375C458.912 81.8457 458.99 82.9215 459.131 84.0649C459.271 85.2083 459.455 86.2711 459.683 87.2533C459.933 88.2329 460.24 89.0764 460.607 89.7837C460.992 90.4672 461.443 90.9921 461.961 91.3584C462.5 91.7221 463.119 91.861 463.817 91.7752C464.516 91.6894 465.072 91.4062 465.486 90.9255C465.9 90.4448 466.2 89.8276 466.387 89.0739C466.593 88.2964 466.698 87.4023 466.703 86.3915C466.708 85.3807 466.64 84.3036 466.499 83.1602ZM486.477 75.3554C486.57 76.1176 486.504 76.8888 486.277 77.6689C486.048 78.4278 485.722 79.1879 485.3 79.949C484.896 80.6864 484.417 81.4223 483.862 82.1567C483.305 82.8699 482.746 83.5726 482.187 84.2646C481.887 84.6238 481.552 85.0518 481.183 85.5484C480.815 86.0451 480.467 86.5391 480.14 87.0306C479.814 87.5221 479.539 87.9964 479.316 88.4537C479.09 88.8898 478.983 89.2468 478.996 89.5247L488.778 88.3235L489.176 91.5632L475.169 93.283C475.127 93.1162 475.092 92.9164 475.063 92.6835C475.032 92.4294 475.009 92.2388 474.993 92.1118C474.868 91.0954 474.913 90.1442 475.126 89.2582C475.359 88.3485 475.694 87.4906 476.132 86.6845C476.571 85.8784 477.078 85.1068 477.654 84.3698C478.229 83.6328 478.806 82.9064 479.385 82.1906C479.833 81.6412 480.262 81.105 480.67 80.5819C481.079 80.0589 481.425 79.5543 481.71 79.068C482.012 78.558 482.241 78.057 482.396 77.5652C482.548 77.0522 482.592 76.5416 482.53 76.0334C482.395 74.9323 481.981 74.1879 481.289 73.8C480.596 73.4122 479.795 73.2742 478.884 73.386C478.291 73.4588 477.751 73.6111 477.264 73.8429C476.776 74.0747 476.346 74.3317 475.972 74.614C475.62 74.8937 475.311 75.1788 475.045 75.4693C474.778 75.7386 474.579 75.9565 474.449 76.1229L472.211 73.6572C472.997 72.701 473.951 71.8961 475.074 71.2423C476.216 70.5647 477.476 70.1415 478.852 69.9725C481.202 69.6839 482.997 70.0331 484.236 71.0202C485.493 71.9834 486.24 73.4285 486.477 75.3554ZM496.301 76.5026C496.392 77.2437 496.212 77.8784 495.761 78.4066C495.331 78.9322 494.767 79.2379 494.068 79.3237C493.349 79.4121 492.716 79.2533 492.172 78.8473C491.628 78.4412 491.31 77.8677 491.219 77.1266C491.128 76.3855 491.298 75.7521 491.728 75.2265C492.155 74.6797 492.728 74.3621 493.448 74.2737C494.147 74.1879 494.77 74.3586 495.317 74.7858C495.882 75.1892 496.21 75.7615 496.301 76.5026ZM497.76 88.3814C497.851 89.1225 497.671 89.7572 497.22 90.2854C496.79 90.811 496.226 91.1167 495.527 91.2025C494.807 91.2909 494.175 91.1321 493.631 90.7261C493.087 90.32 492.769 89.7465 492.678 89.0054C492.587 88.2643 492.756 87.6309 493.186 87.1053C493.613 86.5585 494.187 86.2409 494.907 86.1525C495.606 86.0667 496.228 86.2374 496.775 86.6646C497.341 87.068 497.669 87.6403 497.76 88.3814ZM512.965 72.103C513.059 72.8652 512.992 73.6364 512.766 74.4165C512.537 75.1755 512.211 75.9355 511.788 76.6966C511.385 77.434 510.905 78.1699 510.351 78.9043C509.793 79.6175 509.235 80.3202 508.675 81.0122C508.375 81.3714 508.041 81.7994 507.672 82.296C507.303 82.7927 506.955 83.2868 506.629 83.7782C506.302 84.2697 506.027 84.744 505.804 85.2013C505.578 85.6374 505.472 85.9944 505.484 86.2723L515.267 85.0711L515.665 88.3108L501.658 90.0306C501.616 89.8638 501.581 89.664 501.552 89.4311C501.521 89.177 501.497 88.9864 501.482 88.8594C501.357 87.843 501.401 86.8918 501.615 86.0059C501.847 85.0961 502.183 84.2382 502.621 83.4321C503.059 82.626 503.566 81.8544 504.142 81.1174C504.718 80.3804 505.295 79.654 505.873 78.9382C506.322 78.3888 506.75 77.8526 507.159 77.3295C507.568 76.8065 507.914 76.3019 508.198 75.8156C508.501 75.3056 508.73 74.8046 508.884 74.3128C509.036 73.7998 509.081 73.2892 509.019 72.781C508.883 71.6799 508.47 70.9355 507.777 70.5477C507.085 70.1598 506.283 70.0218 505.373 70.1336C504.78 70.2064 504.24 70.3587 503.752 70.5905C503.265 70.8223 502.834 71.0793 502.461 71.3616C502.108 71.6414 501.799 71.9265 501.534 72.2169C501.266 72.4863 501.067 72.7041 500.937 72.8705L498.7 70.4048C499.485 69.4486 500.44 68.6437 501.563 67.9899C502.705 67.3123 503.964 66.8891 505.34 66.7201C507.691 66.4315 509.485 66.7807 510.724 67.7678C511.982 68.731 512.729 70.1761 512.965 72.103ZM533.531 80.1204C533.643 81.0309 533.588 81.8974 533.367 82.7198C533.145 83.5422 532.752 84.2783 532.187 84.928C531.622 85.5777 530.883 86.1199 529.969 86.5545C529.076 86.9865 528.016 87.2779 526.788 87.4287C525.348 87.6055 524.127 87.5512 523.124 87.2659C522.122 86.9806 521.298 86.566 520.65 86.0221C520.003 85.4783 519.51 84.8726 519.17 84.205C518.849 83.5137 518.649 82.8504 518.571 82.2152C518.493 81.58 518.506 80.9873 518.611 80.4371C518.734 79.8632 518.927 79.3344 519.19 78.8507C519.45 78.3459 519.758 77.8782 520.113 77.4477C520.469 77.0171 520.851 76.6263 521.259 76.2753C520.202 75.7173 519.382 75.0765 518.798 74.3529C518.234 73.6054 517.881 72.66 517.741 71.5166C517.64 70.6908 517.702 69.8878 517.929 69.1077C518.174 68.3039 518.569 67.5784 519.112 66.9313C519.656 66.2842 520.341 65.7379 521.168 65.2925C521.995 64.8472 522.937 64.5595 523.996 64.4295C525.245 64.2761 526.326 64.3261 527.238 64.5794C528.172 64.8302 528.949 65.2077 529.57 65.7118C530.212 66.2133 530.702 66.7978 531.042 67.4654C531.382 68.1329 531.593 68.7949 531.673 69.4513C531.816 70.6159 531.626 71.6924 531.102 72.6809C530.576 73.6482 529.933 74.4473 529.172 75.078C530.505 75.6022 531.522 76.2726 532.224 77.0891C532.947 77.903 533.383 78.9134 533.531 80.1204ZM522.343 81.6876C522.382 82.0052 522.487 82.3362 522.658 82.6806C522.829 83.0249 523.081 83.3271 523.414 83.5872C523.747 83.8472 524.159 84.0545 524.651 84.209C525.141 84.3424 525.735 84.3662 526.433 84.2804C527.068 84.2024 527.609 84.0501 528.054 83.8235C528.499 83.5969 528.853 83.3278 529.115 83.0161C529.375 82.6833 529.557 82.3278 529.661 81.9496C529.763 81.5503 529.79 81.1601 529.743 80.7789C529.67 80.186 529.49 79.6816 529.203 79.2655C528.915 78.8495 528.53 78.5099 528.046 78.2469C527.581 77.9601 527.038 77.7366 526.416 77.5765C525.792 77.3952 525.108 77.2535 524.365 77.1513C523.663 77.7319 523.121 78.4002 522.741 79.1562C522.359 79.8909 522.226 80.7347 522.343 81.6876ZM527.933 69.975C527.899 69.6997 527.799 69.4111 527.633 69.1091C527.486 68.7833 527.258 68.4997 526.948 68.2582C526.661 68.0141 526.304 67.8215 525.878 67.6803C525.452 67.5392 524.954 67.5037 524.382 67.5739C523.81 67.6441 523.324 67.8004 522.924 68.043C522.543 68.2618 522.243 68.535 522.025 68.8627C521.805 69.1691 521.652 69.4996 521.567 69.8539C521.479 70.1872 521.454 70.5126 521.493 70.8302C521.592 71.6348 521.982 72.3607 522.663 73.0078C523.366 73.6523 524.452 74.0993 525.923 74.3486C526.647 73.7653 527.193 73.1394 527.562 72.4708C527.929 71.7809 528.053 70.949 527.933 69.975Z" fill="#0F0F0F"/>
<circle cx="82.5365" cy="128.898" r="53.5" transform="rotate(-7 82.5365 128.898)" fill="#0F0F0F"/>
<path d="M71.3935 148.921L66.9184 112.473C66.7919 111.444 68.5573 110.495 69.9418 111.161L102.36 125.261C103.577 125.739 103.741 127.077 102.676 127.835L74.6572 149.565C73.4622 150.443 71.5326 150.053 71.3935 148.921Z" fill="#FFA500"/>
</svg>
