<svg width="494" height="106" viewBox="0 0 494 106" fill="none" xmlns="http://www.w3.org/2000/svg">
<path fill-rule="evenodd" clip-rule="evenodd" d="M0 0H494V106H32.1512L0 80.4153V0ZM118.467 32.948V73H150.767C153.351 73 155.437 72.66 157.023 71.98C158.655 71.3 159.902 70.416 160.763 69.328C161.67 68.1947 162.282 66.948 162.599 65.588C162.917 64.228 163.075 62.868 163.075 61.508V60.284C163.075 57.7453 162.486 55.7053 161.307 54.164C160.129 52.5773 158.542 51.4667 156.547 50.832C157.454 50.3333 158.293 49.4947 159.063 48.316C159.879 47.092 160.287 45.5507 160.287 43.692V41.652C160.287 39.2493 159.313 37.2093 157.363 35.532C155.414 33.8093 152.309 32.948 148.047 32.948H118.467ZM146.619 48.996H127.443V39.476H146.143C148.138 39.476 149.498 39.9747 150.223 40.972C150.949 41.924 151.311 42.9213 151.311 43.964V44.644C151.311 45.9133 150.926 46.9787 150.155 47.84C149.385 48.656 148.206 49.0413 146.619 48.996ZM148.863 66.472H127.443V55.66H147.367C149.77 55.66 151.493 56.1133 152.535 57.02C153.578 57.8813 154.099 59.0147 154.099 60.42V61.644C154.099 63.14 153.646 64.3187 152.739 65.18C151.878 66.0413 150.586 66.472 148.863 66.472ZM172.588 33.016V73H209.716C212.708 73 214.816 72.932 216.04 72.796C217.264 72.6147 217.876 72.4333 217.876 72.252L215.156 66.472H181.564V55.66H206.996V48.928H181.564V39.544H214.884V33.016H172.588ZM239.135 33.016L219.211 73H229.139L233.559 64.364H257.903L261.915 73H272.387L252.531 33.016H239.135ZM255.387 57.7H236.007L245.391 39.136H246.071L255.387 57.7ZM283.274 39.476L283.342 73H292.318V39.476H310.066V32.948H265.594V39.476H283.274ZM316.889 32.948V73H349.189C351.773 73 353.859 72.66 355.445 71.98C357.077 71.3 358.324 70.416 359.185 69.328C360.092 68.1947 360.704 66.948 361.021 65.588C361.339 64.228 361.497 62.868 361.497 61.508V60.284C361.497 57.7453 360.908 55.7053 359.729 54.164C358.551 52.5773 356.964 51.4667 354.969 50.832C355.876 50.3333 356.715 49.4947 357.485 48.316C358.301 47.092 358.709 45.5507 358.709 43.692V41.652C358.709 39.2493 357.735 37.2093 355.785 35.532C353.836 33.8093 350.731 32.948 346.469 32.948H316.889ZM345.041 48.996H325.865V39.476H344.565C346.56 39.476 347.92 39.9747 348.645 40.972C349.371 41.924 349.733 42.9213 349.733 43.964V44.644C349.733 45.9133 349.348 46.9787 348.577 47.84C347.807 48.656 346.628 49.0413 345.041 48.996ZM347.285 66.472H325.865V55.66H345.789C348.192 55.66 349.915 56.1133 350.957 57.02C352 57.8813 352.521 59.0147 352.521 60.42V61.644C352.521 63.14 352.068 64.3187 351.161 65.18C350.3 66.0413 349.008 66.472 347.285 66.472ZM375.294 71.64C377.108 72.5467 379.601 73 382.774 73H402.63C407.345 73 410.586 71.98 412.354 69.94C414.122 67.8547 415.006 64.8173 415.006 60.828V45.12C415.006 42.4907 414.621 40.292 413.85 38.524C413.125 36.7107 411.856 35.3507 410.042 34.444C408.274 33.492 405.804 33.016 402.63 33.016H382.774C379.556 33.016 377.04 33.492 375.226 34.444C373.413 35.3507 372.144 36.7107 371.418 38.524C370.693 40.292 370.33 42.4907 370.33 45.12V60.828C370.33 63.5027 370.693 65.7467 371.418 67.56C372.189 69.3733 373.481 70.7333 375.294 71.64ZM400.726 66.472H384.746C383.069 66.472 381.732 66.064 380.734 65.248C379.782 64.3867 379.306 63.1853 379.306 61.644V44.304C379.306 42.8533 379.805 41.6973 380.802 40.836C381.8 39.9747 383.114 39.544 384.746 39.544H400.726C402.358 39.544 403.65 40.02 404.602 40.972C405.554 41.8787 406.03 42.9893 406.03 44.304V61.644C406.03 63.14 405.554 64.3187 404.602 65.18C403.696 66.0413 402.404 66.472 400.726 66.472ZM438.798 39.476L438.866 73H447.842V39.476H465.59V32.948H421.118V39.476H438.798ZM34.8 57V55.4V50.6V49H38V50.6V55.4V57H34.8ZM29.8 53.4V55H33V53.4V52.6V51H29.8V52.6V53.4ZM25 52H26H27H28V54H27H26H25V52ZM39.8 58.4V60H43V58.4V47.6V46H39.8V47.6V58.4ZM44.8 63V61.4V44.6V43H48V44.6V61.4V63H44.8ZM49.8 65.7916V67.3916H53V65.7916V40.2084V38.6084H49.8V40.2084V65.7916ZM54.8 65V63.4V42.6V41H58V42.6V63.4V65H54.8ZM59.8 59.4V61H63V59.4V46.6V45H59.8V46.6V59.4ZM64.8 59V57.4V48.6V47H68V48.6V57.4V59H64.8ZM69.8 60.4V62H73V60.4V45.6V44H69.8V45.6V60.4ZM74.8 65V63.4V42.6V41H78V42.6V63.4V65H74.8ZM79.8 66.4V68H83V66.4V39.6V38H79.8V39.6V66.4ZM84.8 69.1304V67.5304V38.4696V36.8696H88V38.4696V67.5304V69.1304H84.8ZM89.8 62.4V64H93V62.4V43.6V42H89.8V43.6V62.4ZM94.8 62V60.4V45.6V44H98V45.6V60.4V62H94.8ZM99.8 65.4V67H103V65.4V40.6V39H99.8V40.6V65.4ZM104.8 70V68.4V37.6V36H108V37.6V68.4V70H104.8ZM109.8 70.4V72H113V70.4V35.6V34H109.8V35.6V70.4Z" fill="white"/>
</svg>
